<svg id="svg2" version="1.0" viewBox="0 0 196.21994 176.00237" xmlns="http://www.w3.org/2000/svg" xmlns:cc="http://creativecommons.org/ns#" xmlns:dc="http://purl.org/dc/elements/1.1/" xmlns:rdf="http://www.w3.org/1999/02/22-rdf-syntax-ns#" xmlns:svg="http://www.w3.org/2000/svg">
  <defs id="defs4">
    <clipPath clipPathUnits="userSpaceOnUse" id="clipPath2422">
      <path d="M1455.8,6729.3v-1180h1330.8v1180h-1330.8z" id="path2424"/>
    </clipPath>
  </defs>
  <metadata id="metadata7">
    <rdf:RDF>
      <cc:Work rdf:about="">
        <dc:format>image/svg+xml</dc:format>
        <dc:type rdf:resource="http://purl.org/dc/dcmitype/StillImage"/>
      </cc:Work>
    </rdf:RDF>
  </metadata>
  <g id="layer1" transform="translate(-20.524613,-21.755259)">
    <path d="M50.077,169.46h166.35v-147.39h-166.35v147.39z" fill="#FFF" fill-rule="evenodd" id="path2414"/>
    <path d="M50.077,169.46v-147.39h166.35v147.39h-166.35" fill="none" id="path2416" stroke="#FFF" stroke-linecap="butt" stroke-linejoin="round" stroke-miterlimit="10" stroke-width="0.625" style="stroke-dasharray:none;"/>
    <g id="g2418" transform="matrix(0.125,0,0,-0.125,-131.79544,863.23526)">
      <g clip-path="url(#clipPath2422)" id="g2420">
        <path d="M2595.8,5550.2v1179.1" fill="none" id="path2426" stroke="#000" stroke-dashoffset="0" stroke-linecap="butt" stroke-linejoin="round" stroke-miterlimit="10" stroke-width="5" style="stroke-dasharray:5, 40;"/>
        <path d="M1455.8,5719.3h1330" fill="none" id="path2428" stroke="#000" stroke-dashoffset="0" stroke-linecap="butt" stroke-linejoin="round" stroke-miterlimit="10" stroke-width="5" style="stroke-dasharray:5, 40;"/>
        <path d="M2566.6,5758.5v-20l0.9-17.5v-3.3v36.6v-17.5l0.8,2.5v-6.6v20.8v-5.8l0.9,2.5v-17.5v20.8v-12.5l0.8,2.5v-29.2v39.2v-11.7l0.8,5v-30v37.5v-5.8l0.8,8.3v0.9v-34.2l0.9,10v-10.8v37.5v-26.7l0.8-8.3v33.3l0.9-5.8v-27.5v36.6v-14.1l0.8-4.2v-16.7v36.7v-25.8l0.8-3.4v-8.3v20.8v-18.3l0.8-2.5v-0.8v37.5v-21.7l0.9-3.3v-12.5v35v-10.9l0.8-5.8v-23.3v35.8v-3.3l0.9-8.4v-30v38.4v-18.4l0.8-12.5v-10v38.4v-6.7l0.8-16.7v-22.5v38.4v-0.9l0.8-19.1v-18.4v40v-0.8l0.9-15v-16.7v35.9v-18.4l0.8,13.4v-26.7v35.8v-12.5l0.9-5v-17.5v38.4v-4.2l0.8-2.5v-30.8v10.8l0.8-3.3v-10v36.6v-2.5l0.8-6.6v-33.4v37.5v-4.1l0.9-14.2v-30v42.5v-0.8l0.8-13.4v-13.3" fill="none" id="path2430" stroke="#000" stroke-linecap="butt" stroke-linejoin="round" stroke-miterlimit="10" stroke-width="5" style="stroke-dasharray:none;"/>
        <path d="M2545,5773.5v-0.8l0.8-20v20v-1.7l0.8-19.2v21.7v-18.3l0.9-19.2v-0.8v35.8v-27.5l0.8,4.2v-8.4v34.2v-23.3l0.9,5v-18.4v35v-26.6l0.8,6.6v-11.6v32.5v-8.4l0.8,8.4v-30v30.8v-20.8l0.8,10v-17.5v27.5v-15l0.9-10.9v-6.6v35.8v-5l0.8-9.2v-20v31.7v-25.8l0.9,14.1v-20.8v35.8v-19.1l0.8-6.7v-7.5v33.3v-31.6l0.8,17.5v-20v36.6v-23.3l0.8-3.3v-9.2v35.8v-27.5l0.9-3.3v-6.7v37.5v-20l0.8-3.3v-13.3v19.1l0.9-2.5v-19.1v38.3v-22.5l0.8-2.5v-15v37.5v-15.8l0.8-3.4v-17.5v35.9v-29.2l0.8-4.2v-4.1v36.6v-19.1l0.9,15.8v-34.2l0.8,15v-19.1v34.1v-18.3l0.9,13.3v-29.1v30v-26.7l0.8,10.8v-15v30v-20l0.8,9.2v-25v33.3l0.8-15.8v-21.7v36.7" fill="none" id="path2432" stroke="#000" stroke-linecap="butt" stroke-linejoin="round" stroke-miterlimit="10" stroke-width="5" style="stroke-dasharray:none;"/>
        <path d="M2522.5,5808.5v-22.5l0.8-3.3v-10.9v36.7v-13.3l0.9-3.4v-19.1v6.6l0.8-3.3v-5.8v38.3v-15l0.8-2.5v-20v10.8l0.8-3.3v10.8v-20l0.9,18.4v19.1v-23.3l0.8-3.3v-12.5v37.5v-13.4l0.9-3.3v-20v3.3l0.8-3.3v-1.7v35.9v-12.5l0.8-4.2v-21.7v35v-19.1l0.8-5v24.1v-36.6l0.9,15.8v-12.5v31.7v-11.7l0.8-6.7v-19.1v34.1v-7.5l0.9-7.5v-21.6v34.1v-15.8l0.8-8.3v-8.4v27.5v-0.8l0.8-9.2v-20v30v-6.6l0.8-10.9v-11.6v24.1v-13.3l0.9,10v-25.8v35.8v-15.8l0.8-13.4v-1.6v28.3v-3.3l0.9-14.2v-20.8v37.5v-23.4l0.8,6.7v-18.3v31.6v-8.3l0.8,5.8v-35v29.2l0.8,4.2v-36.7v22.5l0.9,3.3v-26.6v37.5v-2.5l0.8-19.2v-18.3v38.3v-12.5l0.9,2.5v9.2v-20l0.8,2.5v-4.2v20" fill="none" id="path2434" stroke="#000" stroke-linecap="butt" stroke-linejoin="round" stroke-miterlimit="10" stroke-width="5" style="stroke-dasharray:none;"/>
        <path d="M2499.2,5803.5v-9.2v20v-17.5l0.8,1.7v15v-20l0.8,2.5v16.7l0.8-20v18.3l0.9-19.2v19.2l0.8-19.2v18.4l0.9-19.2v-1.7v19.2v-12.5l0.8,3.3v-9.1v18.3v-5l0.8,4.2v-18.4v18.4v-14.2l0.8,4.2v-23.4v35.9v-18.4l0.9,5v-25v34.2v-4.2l0.8,5v-32.5v33.4v-15.9l0.9-15.8v-0.8v31.6v-18.3l0.8,6.7v-16.7v30v-15.8l0.8-14.2v30.8v-4.1l0.8-14.2v-14.2v26.7l0.9-13.3v-12.5v32.5l0.8-12.5v-23.4v30.9v-1.7l0.9-11.7v11.7v-30.8l0.8,11.6v-5.8v29.2v-24.2l0.8-9.2v32.5v-25.8l0.8,13.3v-20v33.4v-29.2l0.9,14.2v-15.9v30v-15l0.8-6.6v-10v33.3v-17.5l0.9,15.8v-30.8v32.5v-11.7l0.8-5.8v-16.7v33.4v-20.9l0.8-5v-10v34.2v-27.5l0.8-4.2v35v-29.1l0.9-4.2v-3.3v35.8" fill="none" id="path2436" stroke="#000" stroke-linecap="butt" stroke-linejoin="round" stroke-miterlimit="10" stroke-width="5" style="stroke-dasharray:none;"/>
        <path d="M2473.3,5851.8l0.9-5v-30.8l0.8,16.7v16.6v-22.5l0.8-5.8v-5.8v32.5v-18.4l0.8-5.8v-12.5v30.8v-5.8l0.9-6.7v-20v30v-6.6l0.8-6.7v-14.2v29.2v-15l0.9-7.5v-7.5v28.3v-23.3l0.8-8.3v29.1l0.8-8.3v-17.5v25.8v-18.3l0.8-9.2v-3.3v28.3v-15.8l0.9,11.7v-19.2v23.3v-20.8l0.8-10v34.2v-21.7l0.9,10.8v-23.3l0.8,10v-15.8v35.8v-15.8l0.8,9.1v-24.1v27.5v-12.5l0.8-13.4v26.7v-9.2l0.9,8.4v-27.5v10.8l0.8-14.2v30.9v-22.5l0.9,7.5v-22.5v33.3l0.8-15v-15.8v31.6l0.8-15.8v12.5v-32.5l0.8,5v25.8v-33.3l0.9,5v27.5v-35l0.8,5v28.3l0.9-17.5v-18.3v29.2l0.8,3.3v-34.2v37.5v-21.6l0.8,3.3v17.5v-19.2l0.8-19.1v25.8l0.9,2.5v-12.5v20v-12.5l0.8,1.7v-10.9v20v-13.3l0.9,2.5" fill="none" id="path2438" stroke="#000" stroke-linecap="butt" stroke-linejoin="round" stroke-miterlimit="10" stroke-width="5" style="stroke-dasharray:none;"/>
        <path d="M2445.8,5855.2v-15.9v27.5v-15l0.8,12.5v-26.6v13.3l0.9,13.3v-25.8v26.7l0.8-8.4v-15.8v27.5l0.9-7.5v-23.3v29.1l0.8-7.5v-21.6v14.1l0.8,15v-34.1l0.8,15.8v15v-25.8l0.9-5.9v31.7v-12.5l0.8-5.8v-11.7v32.5v-5l0.9-5.8v-21.7v16.7l0.8,16.6v-20l0.8-5v-10v34.2v-4.2l0.8-5v-22.5l0.9-4.1v35.8v-8.3l0.8-4.2v-20.8l0.9-3.4v35.9v-10.9l0.8-4.1v-18.4l0.8-3.3v18.3v-13.3l0.8-3.3v-3.4v36.7v-6.7l0.9-3.3v-15.8l0.8-3.4v-9.1v37.5l0.9-3.4v-12.5l0.8-3.3v-18.3l0.8,19.1v-15.8l0.8-3.3v-3.4v37.5v-5.8l0.9-3.3v-16.7l0.8-3.3v-10v36.6v-3.3l0.9-3.3v-14.2l0.8-3.3v-10.9v18.4v-7.5l0.8-4.2v-7.5v17.5v-11.7l0.8-4.1v-4.2v35.8v-9.1l0.9-4.2v-21.7v16.7l0.8-4.2v-14.1v34.1" fill="none" id="path2440" stroke="#000" stroke-linecap="butt" stroke-linejoin="round" stroke-miterlimit="10" stroke-width="5" style="stroke-dasharray:none;"/>
        <path d="M2417.5,5885.2l0.8-20v7.5l0.9,1.6v5.9l0.8,1.6v-18.3v20v-15.8l0.8,2.5v8.3l0.8,1.7v-17.5v20v-15.9l0.9,2.5v9.2l0.8,2.5v-19.2v7.5l0.9,2.5v8.4l0.8-19.2v11.7l0.8,2.5v-15.9v19.2v-12.5l0.8,3.3v10v-19.1l0.9-18.4v18.4l0.8,3.3v11.7v-17.5l0.9,4.1v16.7l0.8-17.5v-17.5v13.3l0.8,5v14.2v-16.7l0.8-16.6v25.8l0.9,5v-32.5v10.8l0.8,5.9v18.3v-15.8l0.9-15.9v25l0.8,6.7v-30.8v20.8l0.8,6.7v-30v15l0.8,7.5v-21.7v28.3v-20.8l0.9,8.3v-12.5v28.4v-20l0.8,8.3v-18.3v26.6v-18.3l0.9,8.3v-16.6v25.8v-17.5l0.8,9.2v-15.9v25v-15.8l0.8,10v-25v30l0.8-11.7v-24.1v20.8l0.9,10.8v-22.5v10l0.8-10.8v21.7v-20.9l0.9,11.7v-20v30.8v-19.1l0.8,12.5v11.6v-29.1l0.8,12.5" fill="none" id="path2442" stroke="#000" stroke-linecap="butt" stroke-linejoin="round" stroke-miterlimit="10" stroke-width="5" style="stroke-dasharray:none;"/>
        <path d="M2385,5901l0.8,10v10.8v-24.1l0.8-11.7v29.2l0.9-12.5v-12.5v19.1l0.8,9.2v-25.8v9.1l0.9,9.2v-26.7v9.2l0.8,8.3v8.4v-26.7l0.8,8.3v24.2l0.8-14.2v-14.1v23.3l0.9-14.2v-15v15l0.8,7.5v6.7v-29.2l0.9,6.7v20l0.8-15v-15.8v13.3l0.8,5.8v12.5v-15.8l0.8-15.8v23.3l0.9,5.8v-32.5v5l0.8,5.9v15.8l0.9,5v-34.2v10l0.8,5v13.4l0.8,5v-35v8.3l0.8,4.2v12.5l0.9,4.1v-18.3v7.5l0.8,4.2v7.5v-36.7l0.9,3.3v13.4l0.8,3.3v9.2l0.8,3.3v-19.2v5.9l0.8,3.3v10.8l0.9-19.1v-19.2v7.5l0.8,2.5v7.5l0.9,2.5v9.2l0.8,1.6v5v-20l0.8,1.7v8.3l0.8,2.5v3.4v-20l0.9,2.5v7.5l0.8,1.6v6.7l0.9-20v5.8l0.8,1.7v6.7l0.8,1.6v-16.6v20v-18.4l0.8,1.7v5.8l0.9,1.7v6.7" fill="none" id="path2444" stroke="#000" stroke-linecap="butt" stroke-linejoin="round" stroke-miterlimit="10" stroke-width="5" style="stroke-dasharray:none;"/>
        <path d="M2351.6,5953.5v-6.7l0.9-4.1v-10.9l0.8-3.3v-4.2v18.4l0.9-3.4v-11.6l0.8-3.4v-4.1v18.3l0.8,18.3v-8.3l0.8-3.3v-11.7l0.9-4.2v-8.3l0.8,18.3v-12.5l0.9-4.1v-4.2v17.5l0.8,17.5v-8.3l0.8-4.2v-13.3l0.8-5v-8.4v16.7l0.9,17.5v-9.2l0.8-5v-10l0.9-4.1v-5v33.3l0.8-5v-10l0.8-5.8v-15.9l0.8,16.7v16.7v-5.9l0.9-5.8v-16.7l0.8-5.8v31.7l0.9-5.9v-18.3l0.8-5.8v-6.7v30.8l0.8-5.8v-13.3l0.8-6.7v-6.7v30l0.9-6.6v-21.7l0.8,15v14.2v-6.7l0.9-7.5v-15v14.2l0.8,14.1v-23.3l0.8-8.3v27.5l0.8-8.4v-25l0.9,13.4v13.3v-16.7l0.8-9.1v25.8v-9.2l0.9-9.1v-9.2v25.8l0.8-10v-19.1v12.5l0.8,12.5v11.6v-20l0.8-10v23.4l0.9-10v-20.9v10.9l0.8,11.6v10.9v-21.7l0.9-10.8v32.5l0.8-11.7v-22.5v10" fill="none" id="path2446" stroke="#000" stroke-linecap="butt" stroke-linejoin="round" stroke-miterlimit="10" stroke-width="5" style="stroke-dasharray:none;"/>
        <path d="M2315.8,5972.7l0.8-10v-9.2v12.5l0.9,12.5v-18.3l0.8-8.4v25.9l0.9-9.2v-17.5l0.8,13.3v13.4v-8.4l0.8-8.3v-8.3v14.1l0.8,13.4v-15.9l0.9-7.5v-7.5v14.2l0.8,14.2v-15.9l0.9-6.6v-7.5v14.1l0.8,15v-14.1l0.8-7.5v-6.7v15l0.8,15v-13.3l0.9-6.7v-13.3l0.8,15.8v15v-5.8l0.9-6.7v-11.7l0.8-6.6v32.5l0.8-6.7v-10.8l0.8-5.9v-11.6l0.9,16.6v15.9v-5l0.8-5.9v-10l0.9-5.8v-10v16.7l0.8,16.6v-10l0.8-4.1v-10l0.8-5v-4.2v16.7l0.9,17.5v-9.2l0.8-5v-8.3l0.9-5v-8.4l0.8,17.5v-12.5l0.8-4.1v-4.2v17.5l0.8,17.5v-7.5l0.9-4.2v-8.3l0.8-4.2v-7.5l0.9-4.1v18.3v-7.5l0.8-4.2v-7.5l0.8,18.4v-7.5l0.8-3.4v-11.6l0.9,18.3v18.3v-3.3l0.8-4.2v-6.6l0.9-4.2v-6.7l0.8-4.1v-10.9l0.8,18.4v18.3v-3.3l0.8-4.2" fill="none" id="path2448" stroke="#000" stroke-linecap="butt" stroke-linejoin="round" stroke-miterlimit="10" stroke-width="5" style="stroke-dasharray:none;"/>
        <path d="M2279.2,6005.2v2.5l0.8,2.5v-37.5l0.8,2.5v6.6l0.8,2.5v6.7l0.9,3.3v3.4l0.8,3.3v3.3v-18.3l0.9,4.2v7.5l0.8,3.3v4.2l0.8-18.4v-17.5v4.2l0.8,3.3v9.2l0.9,4.2v8.3l0.8,5v-17.5l0.9-17.5v10l0.8,5v9.2l0.8,5.8v-34.2l0.8,5.9v10.8l0.9,5v5.8l0.8,5.9v-32.5l0.9,5.8v12.5l0.8,5.8v6.7v-15.8l0.8-15.9v13.4l0.8,6.6v6.7l0.9,6.7v-30l0.8,6.6v14.2l0.9,7.5v-29.2l0.8,7.5v15l0.8-13.3v-14.2v7.5l0.8,8.4v7.5l0.9,8.3v-26.7l0.8,8.4v16.6l0.9-13.3v-12.5v8.3l0.8,9.2v9.2v-13.4l0.8-12.5v19.2l0.8-12.5v-12.5v9.2l0.9,10v10l0.8-12.5v-23.4l0.9,10v20l0.8-10.8v-11.7v10.9l0.8,10v-21.7l0.8,10.8v10.9v-10.9l0.9-10.8v22.5l0.8-10.8v-20l0.9,11.6v23.4l0.8-10v-20l0.8,12.5v11.6v-9.1" fill="none" id="path2450" stroke="#000" stroke-linecap="butt" stroke-linejoin="round" stroke-miterlimit="10" stroke-width="5" style="stroke-dasharray:none;"/>
        <path d="M2239.2,6044.3l0.8-20v1.7l0.8,2.5v4.2l0.8,1.6v2.5l0.9,1.7v1.7l0.8-20v3.3l0.9,1.7v1.6l0.8,1.7v1.7l0.8,1.6v3.4l0.8,1.6v0.9l0.9-20v2.5l0.8,1.6v1.7l0.9,0.8v1.7l0.8,0.8v2.5l0.8,1.7v0.8l0.8,1.7v-20.8v0.8l0.9,1.7v0.8l0.8,0.8v2.5l0.9,0.9v1.6l0.8,0.9v0.8l0.8,0.8v2.5l0.8,0.9v0.8l0.9-20.8v2.5l0.8,0.8v0.8l0.9,1.7v1.7l0.8,0.8v1.7l0.8,0.8v1.7l0.8,1.6v0.9l0.9,0.8v-20.8v1.6l0.8,0.9v0.8l0.9,1.7v2.5l0.8,0.8v0.8l0.8,1.7v2.5l0.8,1.7v0.8l0.9,1.7v-20.9v1.7l0.8,0.8v3.4l0.9,1.6v1.7l0.8,0.8v3.4l0.8,1.6v1.7l0.8-20v3.3l0.9,1.7v2.5l0.8,1.7v3.3l0.9,2.5v1.7l0.8-19.2v4.2l0.8,1.6v5l0.8,1.7v2.5l0.9,2.5v-19.2v2.5l0.8,2.5v5l0.9,3.4" fill="none" id="path2452" stroke="#000" stroke-linecap="butt" stroke-linejoin="round" stroke-miterlimit="10" stroke-width="5" style="stroke-dasharray:none;"/>
        <path d="M2200,6086v-12.5l0.8-11.7v-12.5l0.8,9.2v18.3l0.9-13.3v-12.5l0.8,9.2v8.3l0.9,9.2v-13.4l0.8-13.3v8.3l0.8,8.4v8.3l0.8-13.3v-14.2l0.9,8.3v15.9l0.8-14.2v-14.2l0.9,8.4v7.5l0.8,7.5v7.5l0.8-15v-14.2l0.8,6.7v7.5l0.9,6.6v7.5v-15l0.8-15v6.7l0.9,6.7v5.8l0.8,6.7v-15l0.8-15.9v6.7l0.8,5.8v11.7l0.9-15.8v-15.9l0.8,5.9v5.8l0.9,5.8v5l0.8,5.9v5.8v-16.7l0.8-16.6v5l0.8,5v5l0.9,5v5l0.8,5v-34.2l0.9,4.2v5l0.8,4.1v5l0.8,4.2v4.2l0.8-17.5v8.3l0.9,4.2v4.1l0.8-18.3v4.2l0.9,3.3v4.2l0.8,3.3v3.3v-18.3l0.8-18.3v3.3l0.8,3.3v6.7l0.9,3.3v3.4l0.8,3.3v2.5l0.9,3.3v2.5l0.8-18.3v-19.2v2.5l0.8,2.5v3.4l0.8,2.5v5l0.9,2.5v2.5l0.8,2.5v1.6l0.9,2.5v5" fill="none" id="path2454" stroke="#000" stroke-linecap="butt" stroke-linejoin="round" stroke-miterlimit="10" stroke-width="5" style="stroke-dasharray:none;"/>
        <path d="M2157.5,6111.8l0.8-5.8v-5.8l0.9-5.9v16.7l0.8,15.8v-5.8l0.8-5.8,0.8-5.9v-5.8l0.9-5.8v-5.9l0.8,15v15.9l0.9-5.9v-6.6l0.8-5.9v-6.6l0.8-5.9v15l0.8,15.9v-6.7l0.9-6.7v-6.6l0.8-6.7v-6.7l0.9-6.6v15l0.8,14.1,0.8-6.6v-6.7l0.8-7.5v-7.5l0.9,15v15l0.8-7.5v-7.5l0.9-7.5v-7.5l0.8,14.2v14.1l0.8-7.5v-8.3l0.8-7.5v-8.3l0.9,14.1v13.4l0.8-7.5v-8.4l0.9-8.3v-8.3l0.8,13.3v13.3l0.8-8.3v-9.2l0.8-8.3v13.3l0.9,12.5v-8.3l0.8-9.2v-9.1l0.9,12.5v12.5l0.8-9.2v-9.2l0.8-9.1v12.5l0.8,11.6v-9.1l0.9-10v-10l0.8,12.5v11.6l0.9-10v-10l0.8-10.8v11.7l0.8,11.6v11.7l0.8-10.8v-10.9l0.9-10v10.9l0.8,10.8v-21.7l0.9,10.9v10.8l0.8-11.7v-10.8l0.8,10v10.8l0.8-11.6v-11.7l0.9,10v10l0.8-11.7v-12.5l0.9,10v10l0.8,9.2" fill="none" id="path2456" stroke="#000" stroke-linecap="butt" stroke-linejoin="round" stroke-miterlimit="10" stroke-width="5" style="stroke-dasharray:none;"/>
        <path d="M2111.6,6137.7v16.6l0.9,16.7v-5.8l0.8-5,0.9-5.9v-5l0.8-5.8v-5l0.8-5,0.8,16.7v16.6l0.9-5.8v-5l0.8-5,0.9-5v-5l0.8-5v-5l0.8,16.7v17.5l0.8-5,0.9-5v-5l0.8-5v-5l0.9-4.2v-5l0.8-5,0.8,17.5v16.7l0.8-4.2v-5l0.9-5v-4.2l0.8-5,0.9-5v-4.1l0.8-5v17.5l0.8-4.2v-5l0.8-4.2,0.9-5v-5l0.8,17.5v17.5l0.9-4.1v-5l0.8-4.2v-5l0.8-4.2,0.8-5v-4.1l0.9-5v17.5l0.8,17.5v-5l0.9-4.2,0.8-5v-4.2l0.8-5v-4.1l0.8-5v-5l0.9-4.2v16.7l0.8,17.5v-5l0.9-4.2,0.8-5v-5l0.8-4.2v-5l0.8-5v-5l0.9,17.5v16.7l0.8-5v-5l0.9-5,0.8-5v-5l0.8-5v-5l0.8,17.5v16.7l0.9-5.9v-5l0.8-5v-5l0.9-5.8,0.8-5v-5l0.8,15.8v16.7l0.8-5v-5.8l0.9-5.9v-5" fill="none" id="path2458" stroke="#000" stroke-linecap="butt" stroke-linejoin="round" stroke-miterlimit="10" stroke-width="5" style="stroke-dasharray:none;"/>
        <path d="M2060.8,6178.5l0.8,10v10l0.9,9.2,0.8-11.7v-12.5l0.9-11.7v10l0.8,10,0.8,10.9v-11.7l0.8-11.7,0.9,10.9v10l0.8-10.9,0.9-11.6v-10.9l0.8,10.9v10.8l0.8,11.7,0.8-10.9v-10.8l0.9-10.8,0.8,11.6v11.7l0.9-10v-10.8l0.8,11.6,0.8,11.7v-10l0.8-9.2,0.9-10v11.7l0.8,12.5v-10l0.9-9.2,0.8-9.1v12.5l0.8,12.5,0.8-9.2v-9.2l0.9-9.1v12.5l0.8,13.3,0.9-9.2v-8.3l0.8-9.2v13.4l0.8,13.3,0.8-8.3v-8.4l0.9-8.3v14.2l0.8,13.3,0.9-8.3v-7.5l0.8-8.4,0.8-7.5v13.4l0.8,14.1v-7.5l0.9-7.5,0.8-7.5v-7.5l0.9,14.2v15l0.8-7.5,0.8-7.5v-7.5l0.8-6.7v15l0.9,14.2,0.8-6.7v-6.6l0.9-6.7v-7.5l0.8-6.7,0.8,15.9v15l0.8-6.7v-6.7l0.9-5.8,0.8-6.7v-6.6l0.9,15.8v15.8l0.8-6.6,0.8-5.9v-5.8l0.8-6.7v-5.8l0.9-5.8,0.8,15.8v16.7l0.9-5.9v-5.8l0.8-5.8,0.8-5.9v-5.8l0.8-5.8" fill="none" id="path2460" stroke="#000" stroke-linecap="butt" stroke-linejoin="round" stroke-miterlimit="10" stroke-width="5" style="stroke-dasharray:none;"/>
        <path d="M2005.8,6231.8v1.7l0.8,2.5,0.9,1.7,0.8,2.5v1.6l0.9,2.5,0.8,1.7v2.5l0.8-19.2,0.8-20v2.5l0.9,2.5,0.8,3.4v2.5l0.9,2.5,0.8,2.5,0.8,3.3v2.5l0.8,3.3,0.9,3.4v2.5l0.8-18.4,0.9,3.4v3.3l0.8,3.3,0.8,3.4v3.3l0.8-17.5,0.9-18.3v3.3l0.8,4.2,0.9,4.1v3.4l0.8,4.1,0.8,4.2,0.8,4.2v4.1l0.9-17.5,0.8-17.5v5l0.9,4.2,0.8,5v5l0.8,4.2,0.8,5v-16.7l0.9-16.7,0.8,5v5l0.9,5.9,0.8,5v5.8l0.8,5,0.8-15.8v-16.7l0.9,5.8,0.8,5.9v6.6l0.9,5.9,0.8,5.8v-15.8l0.8-15,0.8,5.8v6.7l0.9,6.6,0.8,6.7v-15l0.9-15v6.7l0.8,6.6,0.8,7.5v6.7l0.8-14.2,0.9-15v7.5l0.8,7.5,0.9,7.5v7.5l0.8-14.1,0.8-14.2v8.3l0.8,8.4,0.9,7.5v-13.4l0.8-14.1,0.9,8.3v9.2l0.8,8.3,0.8-13.3v-13.4l0.8,9.2v8.3l0.9,9.2,0.8-12.5v-13.3l0.9,9.1,0.8,9.2v-12.5l0.8-12.5" fill="none" id="path2462" stroke="#000" stroke-linecap="butt" stroke-linejoin="round" stroke-miterlimit="10" stroke-width="5" style="stroke-dasharray:none;"/>
        <path d="M1930,6307.7l0.8,0.8,0.8,0.8,0.9,0.9h0.8l0.9,0.8,0.8,0.8h0.8l0.8,0.9,0.9-21.7h0.8l0.9,0.8h2.4l0.9,0.9h4.1l0.9-0.9h4.1l0.9-0.8h1.7l0.8-0.8h0.8l0.8-0.9h0.9l0.8-0.8h1.7l0.8-0.8h0.8l0.9-0.9h0.8l0.9-0.8h0.8l0.8-0.8,0.8-21.7h0.9l0.8-0.8h0.9l0.8-0.9h2.5l0.8-0.8h8.3l0.9,0.8h0.8l0.9,0.9h0.8l0.8,0.8,0.8,0.8h0.9l0.8,0.9h0.9v-20.9l0.8,0.9h0.8l0.8,0.8v0.8l0.9,0.9,0.8,0.8v0.8l0.9,0.9,0.8,0.8,0.8,0.8v0.9l0.8,1.6,0.9,0.9v0.8l0.8,1.7,0.9-20.9,0.8,1.7v0.8l0.8,1.7,0.8,1.7v0.8l0.9,1.7,0.8,1.6,0.9,1.7v1.7l0.8,1.6,0.8-20" fill="none" id="path2464" stroke="#000" stroke-linecap="butt" stroke-linejoin="round" stroke-miterlimit="10" stroke-width="5" style="stroke-dasharray:none;"/>
        <path d="M1860.8,6371l0.8-15,0.9,6.7,0.8,7.5,0.9,6.6,0.8-15v-15l0.8,6.7,0.8,5.8,0.9,6.7,0.8,6.7,0.9-15.9,0.8-15.8v6.7l0.8,5.8,0.8,5.8,0.9,5.9,0.8,5.8,0.9-15.8,0.8-16.7,0.8,5.8v5.9l0.8,5,0.9,5.8,0.8,5,0.9-16.7,0.8-16.6,0.8,5v5l0.8,5,0.9,5,0.8,4.1,0.9,5,0.8-17.5v-17.5l0.8,5,0.8,4.2,0.9,4.2,0.8,4.1,0.9,4.2,0.8,4.2v4.1l0.8-17.5,0.8-18.3,0.9,3.3,0.8,4.2,0.9,3.3v4.2l0.8,3.3,0.8,3.4,0.8,3.3,0.9,3.3,0.8-18.3v-19.2l0.9,3.4,0.8,3.3,0.8,2.5,0.8,3.3v2.5l0.9,2.5,0.8,3.4,0.9,2.5,0.8,2.5,0.8,2.5v-19.2l0.8,2.5,0.9,2.5,0.8,1.7,0.9,2.5,0.8,2.5v1.6l0.8,2.5,0.8-20,0.9,1.7,0.8,1.7,0.9,2.5v1.6l0.8,1.7,0.8,1.7,0.8,1.6,0.9,1.7v-20.8l0.8,1.6,0.9,1.7,0.8,0.8,0.8,1.7v0.8l0.8,1.7,0.9,0.8,0.8,0.9,0.9,1.6,0.8,0.9v-20.9l0.8,0.9,0.8,0.8,0.9,0.8v0.9l0.8,0.8,0.9,0.8,0.8,0.9" fill="none" id="path2466" stroke="#000" stroke-linecap="butt" stroke-linejoin="round" stroke-miterlimit="10" stroke-width="5" style="stroke-dasharray:none;"/>
        <path d="M1784.2,6429.3l0.8-7.5,0.8,14.2,0.8,14.2,0.9-8.4,0.8-8.3,0.9-7.5,0.8-8.3,0.8,13.3,0.8,14.2,0.9-8.4,0.8-8.3,0.9-8.3,0.8,13.3,0.8,13.3,0.8-8.3,0.9-9.2,0.8-8.3,0.9-9.2,0.8,13.4,0.8,13.3,0.8-9.2,0.9-9.1,0.8-8.4,0.9,12.5v12.5l0.8-9.1,0.8-9.2,0.8-9.2,0.9,12.5,0.8,12.5,0.9-10,0.8-9.1,0.8-10,0.8,12.5,0.9,11.6,0.8-10,0.9-9.1,0.8-10,0.8,11.6,0.8,11.7,0.9-10,0.8-10.8v-10l0.9,11.6,0.8,10.9,0.8-10,0.8-10.9,0.9,10.9,0.8,11.6,0.9-10.8,0.8-10.8,0.8-11.7,0.8,10.8,0.9,10.9,0.8,10.8,0.9-10.8v-11.7l0.8-11.7,0.8,10.9,0.8,10,0.9,10,0.8-11.7,0.9-11.7,0.8-11.6,0.8,10,0.8,9.1,0.9,10,0.8-12.5v-11.6l0.9-12.5,0.8,9.1,0.8,9.2,0.8,10,0.9-13.3,0.8-12.5,0.9,9.1,0.8,9.2,0.8,8.3v-12.5l0.8-13.3,0.9,8.3,0.8,8.4,0.9-13.4,0.8-13.3,0.8,8.3,0.8,8.4,0.9,8.3v-14.2l0.8-13.3,0.9,7.5,0.8,8.3,0.8,7.5,0.8-14.1,0.9-14.2,0.8,7.5,0.9,7.5v7.5l0.8,6.7,0.8-14.2" fill="none" id="path2468" stroke="#000" stroke-linecap="butt" stroke-linejoin="round" stroke-miterlimit="10" stroke-width="5" style="stroke-dasharray:none;"/>
        <path d="M1699.2,6527.7l1.6-7.5,0.8-6.7,0.9-6.7,0.8-7.5,0.9,15,0.8,15,0.8-6.6,0.8-6.7,0.9-6.7,0.8-6.6,0.9-6.7,0.8,15,0.8,15,0.8-5.8,1.7-6.7,0.9-6.7,0.8-6.6,0.8-6.7,0.8-6.7,0.9,15.9,0.8,15,0.9-6.7,0.8-6.7,0.8-5.8,0.8-6.7,0.9-6.6,0.8-5.9,0.9,15,0.8,15.9,0.8-6.7,0.8-6.7,1.7-5.8,0.9-6.7,0.8-6.6,0.8,15.8,0.8,15.8,0.9-6.6,0.8-6.7,0.9-5.8,0.8-6.7,0.8-5.8,0.8-6.7,0.9,15.8,0.8,15,0.9-5.8,0.8-6.7,0.8-6.6,0.8-5.9,0.9-6.6,0.8-6.7,0.9,15.8,0.8,15,0.8-5.8,0.8-6.7,0.9-6.6,0.8-5.9,0.9-6.6,0.8-6.7,0.8,15,0.8,15.8,1.7-6.6,0.9-6.7,0.8-6.7,0.8-6.6,0.8-6.7,0.9,15.8,0.8,15,0.9-6.6,0.8-6.7,0.8-6.7,0.8-6.6,0.9-7.5,0.8-6.7,0.9,15,0.8,15,0.8-6.7,0.8-6.6,0.9-7.5,0.8-6.7,0.9-6.7,0.8,14.2,0.8,15,0.8-6.7,0.9-7.5,0.8-7.5,0.9-6.6,0.8-7.5,0.8,14.1,0.8,15,0.9-7.5,0.8-7.5,0.9-7.5,0.8-7.5v14.2l0.8,14.2,0.8-7.5,0.9-7.5,0.8-7.5,0.9-8.4" fill="none" id="path2470" stroke="#000" stroke-linecap="butt" stroke-linejoin="round" stroke-miterlimit="10" stroke-width="5" style="stroke-dasharray:none;"/>
        <path d="M1645,5550.2v27.5l-0.8,7.5v44.1l-0.9,7.5v180l0.9,9.2v48.3l0.8,10v30.9l0.8,10v30.8l0.8,10.8v21.7l0.9,10.8v10.9l0.8,10.8v21.7l0.9,11.6v10.9l0.8,11.6v10.9l0.8,11.6v11.7l0.8,11.7v11.6l0.9,11.7,0.8,11.7v11.6l0.9,12.5v11.7l0.8,12.5,0.8,11.7v12.5l0.8,12.5,0.9,11.6v12.5l0.8,12.5,0.9,12.5,0.8,12.5,0.8,13.4v12.5l0.8,12.5,0.9,13.3,0.8,12.5,0.9,13.3,0.8,12.5,0.8,13.4v13.3l0.8,13.3,0.9,13.4,0.8,13.3,0.9,13.3,0.8,13.4,0.8,13.3,1.7,13.3,0.8,14.2,0.9,13.3,0.8,13.4,0.8-7.5,0.8-8.4,0.9-8.3,0.8-7.5,0.9,14.2,0.8,13.3,1.6-7.5,0.9-7.5,0.8-8.3,0.9-7.5,0.8-7.5,0.8,14.1,0.8,14.2,0.9-7.5,0.8-7.5,0.9-7.5,1.6-6.7,0.8,14.2,0.9,15,0.8-7.5,0.9-7.5,0.8-6.7,0.8-7.5,0.8-7.5,0.9,15,0.8,15,0.9-6.6" fill="none" id="path2472" stroke="#000" stroke-linecap="butt" stroke-linejoin="round" stroke-miterlimit="10" stroke-width="5" style="stroke-dasharray:none;"/>
        <path d="M1455.8,6729.3l1330.8-1179.1" fill="none" id="path2474" stroke="#000" stroke-dashoffset="0" stroke-linecap="butt" stroke-linejoin="round" stroke-miterlimit="10" stroke-width="5" style="stroke-dasharray:60;"/>
      </g>
    </g>
    <path d="M50.077,22.068h166.35" fill="none" id="path2484" stroke="#000" stroke-linecap="butt" stroke-linejoin="round" stroke-miterlimit="10" stroke-width="0.625" style="stroke-dasharray:none;"/>
    <path d="M50.077,169.46h166.35" fill="none" id="path2486" stroke="#000" stroke-linecap="butt" stroke-linejoin="round" stroke-miterlimit="10" stroke-width="0.625" style="stroke-dasharray:none;"/>
    <path d="M216.43,169.46v-147.39" fill="none" id="path2488" stroke="#000" stroke-linecap="butt" stroke-linejoin="round" stroke-miterlimit="10" stroke-width="0.625" style="stroke-dasharray:none;"/>
    <path d="M50.077,169.46v-147.39" fill="none" id="path2490" stroke="#000" stroke-linecap="butt" stroke-linejoin="round" stroke-miterlimit="10" stroke-width="0.625" style="stroke-dasharray:none;"/>
    <path d="M50.077,169.46h166.35" fill="none" id="path2492" stroke="#000" stroke-linecap="butt" stroke-linejoin="round" stroke-miterlimit="10" stroke-width="0.625" style="stroke-dasharray:none;"/>
    <path d="M50.077,169.46v-147.39" fill="none" id="path2494" stroke="#000" stroke-linecap="butt" stroke-linejoin="round" stroke-miterlimit="10" stroke-width="0.625" style="stroke-dasharray:none;"/>
    <path d="M192.68,169.46v-1.66" fill="none" id="path2496" stroke="#000" stroke-linecap="butt" stroke-linejoin="round" stroke-miterlimit="10" stroke-width="0.625" style="stroke-dasharray:none;"/>
    <path d="M192.68,22.068v1.562" fill="none" id="path2498" stroke="#000" stroke-linecap="butt" stroke-linejoin="round" stroke-miterlimit="10" stroke-width="0.625" style="stroke-dasharray:none;"/>
    <g id="g2500" transform="matrix(1.25,0,0,-1.25,-131.79544,863.23526)">
      <text id="text2502" transform="matrix(1,0,0,-1,256.832,542.934)">
        <tspan fill="#000000" fill-rule="nonzero" font-family="Helvetica" font-size="10px" font-variant="normal" font-weight="normal" id="tspan2504" style="writing-mode:lr-tb;" x="0" y="0">0</tspan>
      </text>
    </g>
    <path d="M50.077,148.32h1.668" fill="none" id="path2506" stroke="#000" stroke-linecap="butt" stroke-linejoin="round" stroke-miterlimit="10" stroke-width="0.625" style="stroke-dasharray:none;"/>
    <path d="M216.43,148.32h-1.67" fill="none" id="path2508" stroke="#000" stroke-linecap="butt" stroke-linejoin="round" stroke-miterlimit="10" stroke-width="0.625" style="stroke-dasharray:none;"/>
    <g id="g2510" transform="matrix(1.25,0,0,-1.25,-131.79544,863.23526)">
      <text id="text2512" transform="matrix(1,0,0,-1,137.165,568.268)">
        <tspan fill="#000000" fill-rule="nonzero" font-family="Helvetica" font-size="10px" font-variant="normal" font-weight="normal" id="tspan2514" style="writing-mode:lr-tb;" x="0" y="0">0</tspan>
      </text>
    </g>
    <path d="M50.077,22.068h166.35" fill="none" id="path2516" stroke="#000" stroke-linecap="butt" stroke-linejoin="round" stroke-miterlimit="10" stroke-width="0.625" style="stroke-dasharray:none;"/>
    <path d="M50.077,169.46h166.35" fill="none" id="path2518" stroke="#000" stroke-linecap="butt" stroke-linejoin="round" stroke-miterlimit="10" stroke-width="0.625" style="stroke-dasharray:none;"/>
    <path d="M216.43,169.46v-147.39" fill="none" id="path2520" stroke="#000" stroke-linecap="butt" stroke-linejoin="round" stroke-miterlimit="10" stroke-width="0.625" style="stroke-dasharray:none;"/>
    <path d="M50.077,169.46v-147.39" fill="none" id="path2522" stroke="#000" stroke-linecap="butt" stroke-linejoin="round" stroke-miterlimit="10" stroke-width="0.625" style="stroke-dasharray:none;"/>
    <path d="M84.870,124.46v-11.35" fill="none" id="path2698" stroke="#000" stroke-linecap="butt" stroke-linejoin="round" stroke-miterlimit="10" stroke-width="0.625" style="stroke-dasharray:none;"/>
    <path d="M80.182,117.48l4.688-12.50v8.13" fill="#000" fill-rule="evenodd" id="path2700"/>
    <path d="M80.182,117.48l4.688-12.50v8.13l-4.688,4.37" fill="none" id="path2702" stroke="#000" stroke-linecap="butt" stroke-linejoin="round" stroke-miterlimit="10" stroke-width="0.625" style="stroke-dasharray:none;"/>
    <path d="M84.870,104.98l4.687,12.50-4.687-4.37" fill="#000" fill-rule="evenodd" id="path2704"/>
    <path d="M84.870,104.98l4.687,12.50-4.687-4.37v-8.13" fill="none" id="path2706" stroke="#000" stroke-linecap="butt" stroke-linejoin="round" stroke-miterlimit="10" stroke-width="0.625" style="stroke-dasharray:none;"/>
    <path d="M99.870,36.650h-21.772" fill="none" id="path2708" stroke="#000" stroke-linecap="butt" stroke-linejoin="round" stroke-miterlimit="10" stroke-width="0.625" style="stroke-dasharray:none;"/>
    <path d="M82.473,41.338l-12.500-4.688h8.125" fill="#000" fill-rule="evenodd" id="path2710"/>
    <path d="M82.473,41.338l-12.500-4.688h8.125l4.375,4.688" fill="none" id="path2712" stroke="#000" stroke-linecap="butt" stroke-linejoin="round" stroke-miterlimit="10" stroke-width="0.625" style="stroke-dasharray:none;"/>
    <path d="M69.973,36.650l12.500-4.687-4.375,4.687" fill="#000" fill-rule="evenodd" id="path2714"/>
    <path d="M69.973,36.650l12.500-4.687-4.375,4.687h-8.125" fill="none" id="path2716" stroke="#000" stroke-linecap="butt" stroke-linejoin="round" stroke-miterlimit="10" stroke-width="0.625" style="stroke-dasharray:none;"/>
    <g id="g2718" transform="matrix(0.125,0,0,-0.125,-490.39854,1261.8364)">
    </g>
    <text font-size="15px" id="text2728" x="125.99081" y="195.71027">
      <tspan fill="#000000" fill-rule="nonzero" font-family="CMMI10" font-size="13.63637447px" font-variant="normal" font-weight="normal" id="tspan2730" style="writing-mode:lr-tb;" x="125.99081" y="195.71027">x</tspan>
    </text>
    <text font-size="15px" id="text2732" x="133.7872" y="197.75763">
      <tspan fill="#000000" fill-rule="nonzero" font-family="CMR8" font-size="9.96263695px" font-variant="normal" font-weight="normal" id="tspan2734" style="writing-mode:lr-tb;" x="133.7872" y="197.75763">1</tspan>
    </text>
    <path d="M22.016,99.921h-1.491v-1.485h1.491v1.485z" id="text2736"/>
    <path d="M31.120,102.85l-3.676-2.59-3.396,2.39v-1.49l1.658-1.09c0.315-0.204,0.580-0.368,0.793-0.492-0.293-0.196-0.553-0.376-0.779-0.540l-1.672-1.192v-1.431l3.330,2.443,3.742-2.630v1.472l-2.198,1.451-0.592,0.387,2.790,1.862v1.45z" id="text2740"/>
    <path d="M33.167,91.439v0.875h-5.580c0.201,0.211,0.402,0.488,0.603,0.830,0.202,0.342,0.352,0.649,0.453,0.921h-0.847c-0.230-0.489-0.509-0.917-0.836-1.284-0.328-0.366-0.646-0.626-0.954-0.778v-0.564h7.161z" id="text2744"/>
    <text font-size="15px" id="text2760" x="102.04207" y="41.025261">
      <tspan fill="#000000" fill-rule="nonzero" font-family="CMMI10" font-size="13.63637447px" font-variant="normal" font-weight="normal" id="tspan2762" style="writing-mode:lr-tb;" x="102.04207" y="41.025261">s</tspan>
    </text>
    <text font-size="15px" id="text2764" x="111.5312" y="42.178612">
      <tspan fill="#000000" fill-rule="nonzero" font-family="Helvetica" font-size="13.63637447px" font-variant="normal" font-weight="normal" id="tspan2766" style="writing-mode:lr-tb;" x="111.5312" y="42.178612">=</tspan>
    </text>
    <text font-size="15px" id="text2768" x="123.6131" y="41.947929">
      <tspan fill="#000000" fill-rule="nonzero" font-family="CMR10" font-size="13.63637447px" font-variant="normal" font-weight="normal" id="tspan2770" style="writing-mode:lr-tb;" x="123.6131" y="41.947929">0</tspan>
    </text>
  </g>
</svg>
