<?xml version="1.0" encoding="utf-8" standalone="no"?>
<!DOCTYPE svg PUBLIC "-//W3C//DTD SVG 1.1//EN"
  "http://www.w3.org/Graphics/SVG/1.1/DTD/svg11.dtd">
<!-- Created with matplotlib (http://matplotlib.org/) -->
<svg height="576pt" version="1.1" viewBox="0 0 576 576" width="576pt" xmlns="http://www.w3.org/2000/svg" xmlns:xlink="http://www.w3.org/1999/xlink">
 <defs>
  <style type="text/css">
*{stroke-linecap:butt;stroke-linejoin:round;}
  </style>
 </defs>
 <g id="figure_1">
  <g id="patch_1">
   <path d="M 0 576 
L 576 576 
L 576 0 
L 0 0 
z
" style="fill:#ffffff;"/>
  </g>
  <g id="axes_1">
   <g id="patch_2">
    <path d="M 72 504 
L 518.4 504 
L 518.4 69.12 
L 72 69.12 
z
" style="fill:#ffffff;"/>
   </g>
   <g id="matplotlib.axis_1">
    <g id="xtick_1">
     <g id="line2d_1">
      <defs>
       <path d="M 0 0 
L 0 3.5 
" id="mc39987537f" style="stroke:#000000;stroke-width:0.8;"/>
      </defs>
      <g>
       <use style="stroke:#000000;stroke-width:0.8;" x="82.064803" xlink:href="#mc39987537f" y="504"/>
      </g>
     </g>
     <g id="text_1">
      <!-- −3 -->
      <defs>
       <path d="M 10.59375 35.5 
L 73.1875 35.5 
L 73.1875 27.203125 
L 10.59375 27.203125 
z
" id="DejaVuSans-2212"/>
       <path d="M 40.578125 39.3125 
Q 47.65625 37.796875 51.625 33 
Q 55.609375 28.21875 55.609375 21.1875 
Q 55.609375 10.40625 48.1875 4.484375 
Q 40.765625 -1.421875 27.09375 -1.421875 
Q 22.515625 -1.421875 17.65625 -0.515625 
Q 12.796875 0.390625 7.625 2.203125 
L 7.625 11.71875 
Q 11.71875 9.328125 16.59375 8.109375 
Q 21.484375 6.890625 26.8125 6.890625 
Q 36.078125 6.890625 40.9375 10.546875 
Q 45.796875 14.203125 45.796875 21.1875 
Q 45.796875 27.640625 41.28125 31.265625 
Q 36.765625 34.90625 28.71875 34.90625 
L 20.21875 34.90625 
L 20.21875 43.015625 
L 29.109375 43.015625 
Q 36.375 43.015625 40.234375 45.921875 
Q 44.09375 48.828125 44.09375 54.296875 
Q 44.09375 59.90625 40.109375 62.90625 
Q 36.140625 65.921875 28.71875 65.921875 
Q 24.65625 65.921875 20.015625 65.03125 
Q 15.375 64.15625 9.8125 62.3125 
L 9.8125 71.09375 
Q 15.4375 72.65625 20.34375 73.4375 
Q 25.25 74.21875 29.59375 74.21875 
Q 40.828125 74.21875 47.359375 69.109375 
Q 53.90625 64.015625 53.90625 55.328125 
Q 53.90625 49.265625 50.4375 45.09375 
Q 46.96875 40.921875 40.578125 39.3125 
z
" id="DejaVuSans-33"/>
      </defs>
      <g transform="translate(71.745271 521.637812)scale(0.14 -0.14)">
       <use xlink:href="#DejaVuSans-2212"/>
       <use x="83.789062" xlink:href="#DejaVuSans-33"/>
      </g>
     </g>
    </g>
    <g id="xtick_2">
     <g id="line2d_2">
      <g>
       <use style="stroke:#000000;stroke-width:0.8;" x="153.147605" xlink:href="#mc39987537f" y="504"/>
      </g>
     </g>
     <g id="text_2">
      <!-- −2 -->
      <defs>
       <path d="M 19.1875 8.296875 
L 53.609375 8.296875 
L 53.609375 0 
L 7.328125 0 
L 7.328125 8.296875 
Q 12.9375 14.109375 22.625 23.890625 
Q 32.328125 33.6875 34.8125 36.53125 
Q 39.546875 41.84375 41.421875 45.53125 
Q 43.3125 49.21875 43.3125 52.78125 
Q 43.3125 58.59375 39.234375 62.25 
Q 35.15625 65.921875 28.609375 65.921875 
Q 23.96875 65.921875 18.8125 64.3125 
Q 13.671875 62.703125 7.8125 59.421875 
L 7.8125 69.390625 
Q 13.765625 71.78125 18.9375 73 
Q 24.125 74.21875 28.421875 74.21875 
Q 39.75 74.21875 46.484375 68.546875 
Q 53.21875 62.890625 53.21875 53.421875 
Q 53.21875 48.921875 51.53125 44.890625 
Q 49.859375 40.875 45.40625 35.40625 
Q 44.1875 33.984375 37.640625 27.21875 
Q 31.109375 20.453125 19.1875 8.296875 
z
" id="DejaVuSans-32"/>
      </defs>
      <g transform="translate(142.828074 521.637812)scale(0.14 -0.14)">
       <use xlink:href="#DejaVuSans-2212"/>
       <use x="83.789062" xlink:href="#DejaVuSans-32"/>
      </g>
     </g>
    </g>
    <g id="xtick_3">
     <g id="line2d_3">
      <g>
       <use style="stroke:#000000;stroke-width:0.8;" x="224.230408" xlink:href="#mc39987537f" y="504"/>
      </g>
     </g>
     <g id="text_3">
      <!-- −1 -->
      <defs>
       <path d="M 12.40625 8.296875 
L 28.515625 8.296875 
L 28.515625 63.921875 
L 10.984375 60.40625 
L 10.984375 69.390625 
L 28.421875 72.90625 
L 38.28125 72.90625 
L 38.28125 8.296875 
L 54.390625 8.296875 
L 54.390625 0 
L 12.40625 0 
z
" id="DejaVuSans-31"/>
      </defs>
      <g transform="translate(213.910876 521.637812)scale(0.14 -0.14)">
       <use xlink:href="#DejaVuSans-2212"/>
       <use x="83.789062" xlink:href="#DejaVuSans-31"/>
      </g>
     </g>
    </g>
    <g id="xtick_4">
     <g id="line2d_4">
      <g>
       <use style="stroke:#000000;stroke-width:0.8;" x="295.31321" xlink:href="#mc39987537f" y="504"/>
      </g>
     </g>
     <g id="text_4">
      <!-- 0 -->
      <defs>
       <path d="M 31.78125 66.40625 
Q 24.171875 66.40625 20.328125 58.90625 
Q 16.5 51.421875 16.5 36.375 
Q 16.5 21.390625 20.328125 13.890625 
Q 24.171875 6.390625 31.78125 6.390625 
Q 39.453125 6.390625 43.28125 13.890625 
Q 47.125 21.390625 47.125 36.375 
Q 47.125 51.421875 43.28125 58.90625 
Q 39.453125 66.40625 31.78125 66.40625 
z
M 31.78125 74.21875 
Q 44.046875 74.21875 50.515625 64.515625 
Q 56.984375 54.828125 56.984375 36.375 
Q 56.984375 17.96875 50.515625 8.265625 
Q 44.046875 -1.421875 31.78125 -1.421875 
Q 19.53125 -1.421875 13.0625 8.265625 
Q 6.59375 17.96875 6.59375 36.375 
Q 6.59375 54.828125 13.0625 64.515625 
Q 19.53125 74.21875 31.78125 74.21875 
z
" id="DejaVuSans-30"/>
      </defs>
      <g transform="translate(290.85946 521.637812)scale(0.14 -0.14)">
       <use xlink:href="#DejaVuSans-30"/>
      </g>
     </g>
    </g>
    <g id="xtick_5">
     <g id="line2d_5">
      <g>
       <use style="stroke:#000000;stroke-width:0.8;" x="366.396013" xlink:href="#mc39987537f" y="504"/>
      </g>
     </g>
     <g id="text_5">
      <!-- 1 -->
      <g transform="translate(361.942263 521.637812)scale(0.14 -0.14)">
       <use xlink:href="#DejaVuSans-31"/>
      </g>
     </g>
    </g>
    <g id="xtick_6">
     <g id="line2d_6">
      <g>
       <use style="stroke:#000000;stroke-width:0.8;" x="437.478815" xlink:href="#mc39987537f" y="504"/>
      </g>
     </g>
     <g id="text_6">
      <!-- 2 -->
      <g transform="translate(433.025065 521.637812)scale(0.14 -0.14)">
       <use xlink:href="#DejaVuSans-32"/>
      </g>
     </g>
    </g>
    <g id="xtick_7">
     <g id="line2d_7">
      <g>
       <use style="stroke:#000000;stroke-width:0.8;" x="508.561618" xlink:href="#mc39987537f" y="504"/>
      </g>
     </g>
     <g id="text_7">
      <!-- 3 -->
      <g transform="translate(504.107868 521.637812)scale(0.14 -0.14)">
       <use xlink:href="#DejaVuSans-33"/>
      </g>
     </g>
    </g>
    <g id="text_8">
     <!-- x1 -->
     <defs>
      <path d="M 54.890625 54.6875 
L 35.109375 28.078125 
L 55.90625 0 
L 45.3125 0 
L 29.390625 21.484375 
L 13.484375 0 
L 2.875 0 
L 24.125 28.609375 
L 4.6875 54.6875 
L 15.28125 54.6875 
L 29.78125 35.203125 
L 44.28125 54.6875 
z
" id="DejaVuSans-78"/>
     </defs>
     <g transform="translate(285.375 540.706875)scale(0.16 -0.16)">
      <use xlink:href="#DejaVuSans-78"/>
      <use x="59.179688" xlink:href="#DejaVuSans-31"/>
     </g>
    </g>
   </g>
   <g id="matplotlib.axis_2">
    <g id="ytick_1">
     <g id="line2d_8">
      <defs>
       <path d="M 0 0 
L -3.5 0 
" id="m4150e96f44" style="stroke:#000000;stroke-width:0.8;"/>
      </defs>
      <g>
       <use style="stroke:#000000;stroke-width:0.8;" x="72" xlink:href="#m4150e96f44" y="504"/>
      </g>
     </g>
     <g id="text_9">
      <!-- −4 -->
      <defs>
       <path d="M 37.796875 64.3125 
L 12.890625 25.390625 
L 37.796875 25.390625 
z
M 35.203125 72.90625 
L 47.609375 72.90625 
L 47.609375 25.390625 
L 58.015625 25.390625 
L 58.015625 17.1875 
L 47.609375 17.1875 
L 47.609375 0 
L 37.796875 0 
L 37.796875 17.1875 
L 4.890625 17.1875 
L 4.890625 26.703125 
z
" id="DejaVuSans-34"/>
      </defs>
      <g transform="translate(44.360937 509.318906)scale(0.14 -0.14)">
       <use xlink:href="#DejaVuSans-2212"/>
       <use x="83.789062" xlink:href="#DejaVuSans-34"/>
      </g>
     </g>
    </g>
    <g id="ytick_2">
     <g id="line2d_9">
      <g>
       <use style="stroke:#000000;stroke-width:0.8;" x="72" xlink:href="#m4150e96f44" y="449.606004"/>
      </g>
     </g>
     <g id="text_10">
      <!-- −3 -->
      <g transform="translate(44.360937 454.92491)scale(0.14 -0.14)">
       <use xlink:href="#DejaVuSans-2212"/>
       <use x="83.789062" xlink:href="#DejaVuSans-33"/>
      </g>
     </g>
    </g>
    <g id="ytick_3">
     <g id="line2d_10">
      <g>
       <use style="stroke:#000000;stroke-width:0.8;" x="72" xlink:href="#m4150e96f44" y="395.212008"/>
      </g>
     </g>
     <g id="text_11">
      <!-- −2 -->
      <g transform="translate(44.360937 400.530914)scale(0.14 -0.14)">
       <use xlink:href="#DejaVuSans-2212"/>
       <use x="83.789062" xlink:href="#DejaVuSans-32"/>
      </g>
     </g>
    </g>
    <g id="ytick_4">
     <g id="line2d_11">
      <g>
       <use style="stroke:#000000;stroke-width:0.8;" x="72" xlink:href="#m4150e96f44" y="340.818011"/>
      </g>
     </g>
     <g id="text_12">
      <!-- −1 -->
      <g transform="translate(44.360937 346.136918)scale(0.14 -0.14)">
       <use xlink:href="#DejaVuSans-2212"/>
       <use x="83.789062" xlink:href="#DejaVuSans-31"/>
      </g>
     </g>
    </g>
    <g id="ytick_5">
     <g id="line2d_12">
      <g>
       <use style="stroke:#000000;stroke-width:0.8;" x="72" xlink:href="#m4150e96f44" y="286.424015"/>
      </g>
     </g>
     <g id="text_13">
      <!-- 0 -->
      <g transform="translate(56.0925 291.742921)scale(0.14 -0.14)">
       <use xlink:href="#DejaVuSans-30"/>
      </g>
     </g>
    </g>
    <g id="ytick_6">
     <g id="line2d_13">
      <g>
       <use style="stroke:#000000;stroke-width:0.8;" x="72" xlink:href="#m4150e96f44" y="232.030019"/>
      </g>
     </g>
     <g id="text_14">
      <!-- 1 -->
      <g transform="translate(56.0925 237.348925)scale(0.14 -0.14)">
       <use xlink:href="#DejaVuSans-31"/>
      </g>
     </g>
    </g>
    <g id="ytick_7">
     <g id="line2d_14">
      <g>
       <use style="stroke:#000000;stroke-width:0.8;" x="72" xlink:href="#m4150e96f44" y="177.636023"/>
      </g>
     </g>
     <g id="text_15">
      <!-- 2 -->
      <g transform="translate(56.0925 182.954929)scale(0.14 -0.14)">
       <use xlink:href="#DejaVuSans-32"/>
      </g>
     </g>
    </g>
    <g id="ytick_8">
     <g id="line2d_15">
      <g>
       <use style="stroke:#000000;stroke-width:0.8;" x="72" xlink:href="#m4150e96f44" y="123.242026"/>
      </g>
     </g>
     <g id="text_16">
      <!-- 3 -->
      <g transform="translate(56.0925 128.560933)scale(0.14 -0.14)">
       <use xlink:href="#DejaVuSans-33"/>
      </g>
     </g>
    </g>
    <g id="ytick_9">
     <g id="line2d_16">
      <g>
       <use style="stroke:#000000;stroke-width:0.8;" x="72" xlink:href="#m4150e96f44" y="68.84803"/>
      </g>
     </g>
     <g id="text_17">
      <!-- 4 -->
      <g transform="translate(56.0925 74.166936)scale(0.14 -0.14)">
       <use xlink:href="#DejaVuSans-34"/>
      </g>
     </g>
    </g>
    <g id="text_18">
     <!-- x2 -->
     <g transform="translate(37.033437 296.385)rotate(-90)scale(0.16 -0.16)">
      <use xlink:href="#DejaVuSans-78"/>
      <use x="59.179688" xlink:href="#DejaVuSans-32"/>
     </g>
    </g>
   </g>
   <g id="LineCollection_1">
    <path clip-path="url(#p179c67572e)" d="M 416.863855 240.188541 
L 420.694855 243.724728 
L 424.570701 247.585827 
L 428.032003 251.339887 
L 431.22856 255.147467 
L 433.907083 258.683077 
L 436.299363 262.220541 
L 438.24227 265.482326 
L 439.925185 268.745966 
L 441.275159 271.848165 
L 442.341401 274.84197 
L 443.142569 277.720976 
L 443.737081 280.712645 
L 444.086169 283.704315 
L 444.188765 286.424015 
L 444.086169 289.143715 
L 443.763057 291.966621 
L 443.206713 294.855084 
L 442.391814 297.846754 
L 441.338955 300.838424 
L 440.053429 303.830094 
L 438.392536 307.093734 
L 436.470058 310.357373 
L 434.166879 313.800274 
L 431.658949 317.156623 
L 428.743805 320.692233 
L 425.298363 324.499812 
L 421.54059 328.307392 
L 417.46242 332.123006 
L 412.842038 336.127187 
L 408.221656 339.85137 
L 403.24586 343.595336 
L 397.903518 347.345291 
L 392.228025 351.054642 
L 386.541401 354.512021 
L 380.854777 357.726976 
L 374.707136 360.94379 
L 368.487472 363.93546 
L 362.373248 366.626364 
L 356.33121 369.047102 
L 350.160075 371.278649 
L 344.247134 373.190826 
L 338.205096 374.917679 
L 332.032935 376.446079 
L 326.121019 377.687253 
L 320.078981 378.730952 
L 314.036943 379.547598 
L 307.994904 380.137294 
L 301.952866 380.500146 
L 295.910828 380.635976 
L 289.86879 380.545038 
L 283.826752 380.227126 
L 277.784713 379.682316 
L 271.628857 378.893809 
L 265.700637 377.911743 
L 259.658599 376.685819 
L 253.616561 375.23222 
L 247.574522 373.550525 
L 241.532484 371.639686 
L 235.490446 369.498195 
L 229.448408 367.123862 
L 223.331114 364.4794 
L 217.364331 361.662032 
L 211.322293 358.563229 
L 205.635669 355.412132 
L 199.862264 351.96878 
L 194.26242 348.378212 
L 188.811085 344.625591 
L 183.6 340.774587 
L 178.520835 336.738462 
L 173.761916 332.658912 
L 169.366182 328.579362 
L 165.473885 324.653439 
L 162.118252 320.964203 
L 158.96742 317.156623 
L 156.332533 313.621013 
L 153.986366 310.085403 
L 152.085322 306.821764 
L 150.446679 303.558124 
L 149.124841 300.415904 
L 148.150587 297.574784 
L 147.347771 294.538094 
L 146.80744 291.591445 
L 146.503263 288.599775 
L 146.441714 285.880075 
L 146.585328 283.160375 
L 146.933253 280.440675 
L 147.549941 277.449006 
L 148.414013 274.440772 
L 149.504104 271.465666 
L 150.901911 268.328648 
L 152.384196 265.482326 
L 154.328138 262.218687 
L 156.588535 258.866342 
L 159.181812 255.419437 
L 162.275159 251.704082 
L 165.473885 248.194591 
L 169.085851 244.540638 
L 173.292994 240.609121 
L 177.557962 236.910046 
L 182.533758 232.896208 
L 187.509554 229.159042 
L 192.840764 225.42305 
L 198.554217 221.695159 
L 204.386454 218.15955 
L 210.256051 214.857971 
L 216.298089 211.714627 
L 222.340127 208.820188 
L 228.382166 206.167519 
L 234.44156 203.745141 
L 240.466242 201.569344 
L 246.50828 199.617992 
L 252.550318 197.89598 
L 258.593125 196.401951 
L 264.634395 195.136114 
L 270.676433 194.097276 
L 276.718471 193.285475 
L 282.76051 192.700618 
L 288.802548 192.342606 
L 294.844586 192.211627 
L 300.886624 192.307403 
L 306.928662 192.630175 
L 312.970701 193.179834 
L 319.012739 193.956377 
L 325.054777 194.960075 
L 331.096815 196.190893 
L 337.138854 197.649324 
L 343.180892 199.335877 
L 349.358977 201.297411 
L 355.465253 203.473171 
L 361.307006 205.777443 
L 367.349045 208.392944 
L 373.391083 211.249548 
L 377.296206 213.226977 
L 377.296206 213.226977 
" style="fill:none;stroke:#440154;stroke-width:1.5;"/>
   </g>
   <g id="LineCollection_2">
    <path clip-path="url(#p179c67572e)" d="M 518.4 363.348874 
L 513.06879 363.466056 
L 507.73758 363.797704 
L 502.050955 364.382657 
L 496.364331 365.197343 
L 490.322293 366.301046 
L 484.280255 367.632538 
L 477.882803 369.268025 
L 470.774522 371.326005 
L 463.290516 373.726379 
L 454.705574 376.718049 
L 444.829299 380.392299 
L 430.257325 386.076873 
L 404.667516 396.089141 
L 392.938854 400.420857 
L 382.631847 403.988956 
L 373.391083 406.953382 
L 364.861146 409.463704 
L 356.686624 411.644817 
L 348.867516 413.509614 
L 341.048408 415.144937 
L 333.584713 416.481968 
L 326.121019 417.592235 
L 318.657325 418.469384 
L 311.549045 419.083513 
L 304.440764 419.478555 
L 297.332484 419.652559 
L 290.224204 419.604594 
L 283.115924 419.334972 
L 276.007643 418.84505 
L 268.899363 418.137202 
L 261.791083 417.215163 
L 254.327389 416.021566 
L 246.863694 414.603964 
L 239.044586 412.887728 
L 230.870064 410.852684 
L 222.529478 408.538537 
L 213.810191 405.882765 
L 204.556228 402.827167 
L 194.26242 399.182328 
L 192.799772 398.646344 
L 192.799772 398.646344 
" style="fill:none;stroke:#414487;stroke-width:1.5;"/>
    <path clip-path="url(#p179c67572e)" d="M 148.060407 381.259928 
L 137.040764 377.123661 
L 127.8 373.882006 
L 119.696415 371.278649 
L 112.872611 369.303234 
L 106.119745 367.578767 
L 99.722293 366.184552 
L 93.680255 365.103777 
L 87.993631 364.312075 
L 82.307006 363.751212 
L 76.975796 363.442805 
L 72 363.348678 
L 72 363.348678 
" style="fill:none;stroke:#414487;stroke-width:1.5;"/>
    <path clip-path="url(#p179c67572e)" d="M 72 209.499352 
L 77.33121 209.391326 
L 82.66242 209.068719 
L 88.349045 208.493135 
L 94.035669 207.687383 
L 99.722293 206.663478 
L 105.764331 205.353006 
L 112.161783 203.737588 
L 118.91465 201.806592 
L 126.519863 199.393621 
L 134.552866 196.621293 
L 144.504459 192.947606 
L 150.253434 190.740516 
L 150.253434 190.740516 
" style="fill:none;stroke:#414487;stroke-width:1.5;"/>
    <path clip-path="url(#p179c67572e)" d="M 195.007856 173.394141 
L 205.353251 169.748893 
L 214.876433 166.628336 
L 223.761783 163.953172 
L 231.936306 161.716469 
L 239.755414 159.794849 
L 247.574522 158.099599 
L 255.088433 156.694334 
L 262.501911 155.531177 
L 269.965605 154.590893 
L 277.073885 153.915547 
L 284.182166 153.458489 
L 291.290446 153.222084 
L 298.398726 153.207439 
L 305.507006 153.414642 
L 312.615287 153.842752 
L 319.723567 154.489436 
L 326.831847 155.35154 
L 334.295541 156.483743 
L 341.759236 157.84197 
L 349.578344 159.498641 
L 357.397452 161.383677 
L 365.571975 163.584646 
L 374.101911 166.114022 
L 382.987261 168.977749 
L 392.938854 172.427173 
L 403.601274 176.355276 
L 417.470468 181.715572 
L 450.250908 194.498161 
L 459.756688 197.917673 
L 468.302406 200.753471 
L 475.750318 202.987631 
L 482.503185 204.783386 
L 488.900637 206.253448 
L 494.942675 207.41249 
L 500.629299 208.282809 
L 506.315924 208.926083 
L 511.647134 209.314383 
L 516.978344 209.489002 
L 518.4 209.499156 
L 518.4 209.499156 
" style="fill:none;stroke:#414487;stroke-width:1.5;"/>
   </g>
   <g id="LineCollection_3">
    <path clip-path="url(#p179c67572e)" d="M 518.4 408.05276 
L 511.647134 408.169722 
L 504.894268 408.504331 
L 497.785987 409.086316 
L 490.65127 409.898386 
L 483.214013 410.97435 
L 475.357872 412.346116 
L 467.220382 413.996147 
L 458.335032 416.029089 
L 448.383439 418.54191 
L 436.299363 421.842049 
L 432.690111 422.865284 
L 432.690111 422.865284 
" style="fill:none;stroke:#2a788e;stroke-width:1.5;"/>
    <path clip-path="url(#p179c67572e)" d="M 386.538012 436.051869 
L 375.057677 438.999174 
L 364.861146 441.391403 
L 355.579203 443.350694 
L 346.735032 445.000079 
L 338.205096 446.372068 
L 329.675159 447.515004 
L 321.500637 448.384803 
L 313.326115 449.025901 
L 305.507006 449.419726 
L 297.687898 449.595879 
L 289.86879 449.552802 
L 282.049682 449.290946 
L 273.934959 448.790094 
L 266.056051 448.084615 
L 257.881529 447.130862 
L 249.351592 445.903989 
L 240.743369 444.438574 
L 231.936306 442.718912 
L 222.340127 440.614181 
L 212.033121 438.117597 
L 200.659873 435.128224 
L 186.798726 431.242576 
L 141.432667 418.329456 
L 131.35414 415.804449 
L 122.46879 413.795089 
L 114.294268 412.163564 
L 106.475159 410.826355 
L 99.011465 409.775694 
L 91.903185 408.996317 
L 84.794904 408.445001 
L 78.042038 408.140405 
L 72 408.052637 
L 72 408.052637 
" style="fill:none;stroke:#2a788e;stroke-width:1.5;"/>
    <path clip-path="url(#p179c67572e)" d="M 72 164.795393 
L 78.752866 164.685776 
L 85.505732 164.358411 
L 92.614013 163.783819 
L 99.722293 162.982245 
L 107.185987 161.909766 
L 115.005096 160.551653 
L 123.321322 158.870094 
L 132.064968 156.873413 
L 142.016561 154.365657 
L 153.745223 151.169652 
L 170.452697 146.359475 
L 196.927462 138.744315 
L 209.545223 135.365272 
L 220.207643 132.731558 
L 230.159236 130.501467 
L 239.4 128.657782 
L 248.28535 127.113434 
L 256.815287 125.857843 
L 265.001747 124.873846 
L 273.164331 124.1175 
L 280.983439 123.609671 
L 288.802548 123.31809 
L 296.621656 123.2451 
L 304.440764 123.391424 
L 312.259873 123.755696 
L 320.078981 124.335064 
L 328.253503 125.165607 
L 336.534485 126.233696 
L 344.957962 127.543903 
L 353.843312 129.156238 
L 363.084076 131.064518 
L 372.823244 133.304916 
L 383.619896 136.024615 
L 395.782166 139.323931 
L 399.387198 140.338527 
L 399.387198 140.338527 
" style="fill:none;stroke:#2a788e;stroke-width:1.5;"/>
    <path clip-path="url(#p179c67572e)" d="M 445.532771 153.548668 
L 455.847134 156.211901 
L 465.087898 158.384569 
L 473.617834 160.167805 
L 481.473441 161.589794 
L 488.900637 162.716926 
L 496.008917 163.580438 
L 503.117197 164.220052 
L 509.870064 164.611177 
L 516.62293 164.785737 
L 518.4 164.79527 
L 518.4 164.79527 
" style="fill:none;stroke:#2a788e;stroke-width:1.5;"/>
   </g>
   <g id="LineCollection_4">
    <path clip-path="url(#p179c67572e)" d="M 518.4 440.273515 
L 510.580892 440.396445 
L 502.761783 440.749657 
L 494.942675 441.327412 
L 486.768153 442.161201 
L 478.238217 443.26594 
L 469.352866 444.649471 
L 459.756688 446.379081 
L 449.203394 448.518124 
L 437.365605 451.145329 
L 420.92038 455.045403 
L 387.252229 463.080479 
L 374.457325 465.868233 
L 363.180508 468.099962 
L 353.132484 469.870111 
L 343.374187 471.363602 
L 334.295541 472.533425 
L 325.410191 473.45857 
L 316.880255 474.131733 
L 308.350318 474.586778 
L 299.820382 474.818747 
L 291.290446 474.825166 
L 282.76051 474.605972 
L 274.230573 474.163461 
L 265.700637 473.502541 
L 256.815287 472.589573 
L 247.574522 471.40887 
L 237.978344 469.949718 
L 228.026752 468.208202 
L 217.364331 466.115757 
L 205.280255 463.51022 
L 199.834394 462.271104 
L 199.834394 462.271104 
" style="fill:none;stroke:#22a884;stroke-width:1.5;"/>
    <path clip-path="url(#p179c67572e)" d="M 153.14811 451.119437 
L 140.594904 448.342439 
L 129.932484 446.200368 
L 120.336306 444.493104 
L 111.450955 443.13344 
L 102.921019 442.054121 
L 94.746497 441.246608 
L 86.927389 440.695339 
L 79.10828 440.369506 
L 72 440.273418 
L 72 440.273418 
" style="fill:none;stroke:#22a884;stroke-width:1.5;"/>
    <path clip-path="url(#p179c67572e)" d="M 72 132.574612 
L 79.819108 132.458397 
L 87.638217 132.111793 
L 95.457325 131.540427 
L 103.631847 130.712971 
L 111.806369 129.664671 
L 120.69172 128.295926 
L 129.932484 126.647662 
L 140.23949 124.580548 
L 151.968153 121.998955 
L 161.338641 119.812094 
L 161.338641 119.812094 
" style="fill:none;stroke:#22a884;stroke-width:1.5;"/>
    <path clip-path="url(#p179c67572e)" d="M 208.03954 108.724058 
L 219.852229 106.225004 
L 230.51465 104.184048 
L 240.466242 102.498318 
L 250.06242 101.098906 
L 259.303185 99.980316 
L 268.188535 99.130551 
L 276.718471 98.532668 
L 285.248408 98.154926 
L 293.778344 98.001376 
L 302.30828 98.073718 
L 310.838217 98.371128 
L 319.368153 98.890405 
L 328.253503 99.661106 
L 337.229853 100.668518 
L 346.379618 101.91926 
L 355.975796 103.456047 
L 366.282803 105.337913 
L 377.300637 107.57821 
L 390.095541 110.416541 
L 406.444586 114.288062 
L 440.564331 122.431987 
L 452.648408 125.052337 
L 462.955414 127.070412 
L 472.295685 128.681426 
L 481.081529 129.975786 
L 489.611465 131.002668 
L 497.785987 131.756159 
L 505.605096 132.253156 
L 513.424204 132.523117 
L 518.4 132.574515 
L 518.4 132.574515 
" style="fill:none;stroke:#22a884;stroke-width:1.5;"/>
   </g>
   <g id="LineCollection_5">
    <path clip-path="url(#p179c67572e)" d="M 518.4 466.82853 
L 510.225478 466.942822 
L 501.823323 467.284053 
L 493.521019 467.837963 
L 484.635669 468.658806 
L 475.394904 469.745714 
L 465.798726 471.102367 
L 455.49172 472.784811 
L 443.763057 474.931872 
L 429.546497 477.774935 
L 426.725171 478.360711 
L 426.725171 478.360711 
" style="fill:none;stroke:#7ad151;stroke-width:1.5;"/>
    <path clip-path="url(#p179c67572e)" d="M 379.725884 488.106975 
L 366.993631 490.429894 
L 355.620382 492.277484 
L 345.313376 493.730666 
L 335.361783 494.909003 
L 325.765605 495.817977 
L 316.524841 496.46942 
L 307.284076 496.892255 
L 298.398726 497.077784 
L 289.513376 497.044285 
L 280.628025 496.792152 
L 271.387261 496.301441 
L 262.146497 495.584393 
L 252.550318 494.610698 
L 242.598726 493.370014 
L 232.29172 491.858455 
L 221.273885 490.018107 
L 208.834395 487.708885 
L 193.857325 484.690131 
L 142.016561 474.018406 
L 130.643312 472.025384 
L 120.336306 470.440187 
L 110.730117 469.187842 
L 101.854777 468.248231 
L 93.273065 467.556023 
L 84.794904 467.093224 
L 76.620382 466.863071 
L 72 466.828446 
L 72 466.828446 
" style="fill:none;stroke:#7ad151;stroke-width:1.5;"/>
    <path clip-path="url(#p179c67572e)" d="M 72 106.019584 
L 80.174522 105.911284 
L 88.349045 105.588189 
L 96.978882 105.020038 
L 105.408917 104.249922 
L 114.649682 103.177395 
L 124.24586 101.834053 
L 134.779613 100.124578 
L 145.926115 98.095431 
L 159.787261 95.339588 
L 182.234852 90.605629 
L 204.214013 86.047477 
L 217.719745 83.467042 
L 229.448408 81.44366 
L 240.110828 79.822716 
L 250.06242 78.526163 
L 259.658599 77.494193 
L 268.899363 76.717706 
L 278.140127 76.165261 
L 287.025478 75.852379 
L 295.910828 75.757512 
L 304.796178 75.881824 
L 313.681529 76.223811 
L 322.922293 76.805743 
L 332.163057 77.610468 
L 341.759236 78.670053 
L 351.75145 79.998799 
L 362.373248 81.638997 
L 374.101911 83.685625 
L 387.252229 86.215034 
L 396.825635 88.169654 
L 396.825635 88.169654 
" style="fill:none;stroke:#7ad151;stroke-width:1.5;"/>
    <path clip-path="url(#p179c67572e)" d="M 443.822576 97.927556 
L 456.202548 100.185945 
L 466.864968 101.907047 
L 476.461146 103.239238 
L 485.701911 104.299735 
L 494.587261 105.093011 
L 503.117197 105.631172 
L 511.647134 105.940615 
L 518.4 106.0195 
L 518.4 106.0195 
" style="fill:none;stroke:#7ad151;stroke-width:1.5;"/>
   </g>
   <g id="LineCollection_6">
    <path clip-path="url(#p179c67572e)" d="M 183.656605 504 
L 183.6 503.989164 
L 183.244586 503.92113 
L 182.889172 503.853097 
L 182.533758 503.785068 
L 182.235741 503.72803 
L 182.178344 503.717031 
L 181.82293 503.648929 
L 181.467516 503.580836 
L 181.112102 503.512754 
L 180.816086 503.45606 
L 180.756688 503.44467 
L 180.401274 503.376528 
L 180.04586 503.308402 
L 179.690446 503.240293 
L 179.397078 503.18409 
L 179.335032 503.172189 
L 178.979618 503.104034 
L 178.624204 503.035902 
L 178.26879 502.967794 
L 177.978149 502.91212 
L 177.913376 502.899697 
L 177.557962 502.831557 
L 177.202548 502.763446 
L 176.847134 502.695366 
L 176.558736 502.64015 
L 176.49172 502.627303 
L 176.136306 502.559205 
L 175.780892 502.491143 
L 175.425478 502.423119 
L 175.138266 502.36818 
L 175.070064 502.355118 
L 174.71465 502.287089 
L 174.359236 502.219103 
L 174.003822 502.151161 
L 173.716164 502.09621 
L 173.648408 502.08325 
L 173.292994 502.015318 
L 172.93758 501.947435 
L 172.582166 501.879604 
L 172.291847 501.82424 
L 172.226752 501.811811 
L 171.871338 501.744002 
L 171.515924 501.676251 
L 171.16051 501.608558 
L 170.864718 501.55227 
L 170.805096 501.54091 
L 170.449682 501.473253 
L 170.094268 501.40566 
L 169.738854 501.338132 
L 169.434172 501.2803 
L 169.383439 501.270658 
L 169.028025 501.203181 
L 168.672611 501.135773 
L 168.317197 501.068438 
L 167.999586 501.00833 
L 167.961783 501.001167 
L 167.606369 500.933896 
L 167.250955 500.866702 
L 166.895541 500.799586 
L 166.560321 500.73636 
L 166.540127 500.732547 
L 166.184713 500.665509 
L 165.829299 500.598556 
L 165.473885 500.531688 
L 165.118471 500.464908 
L 165.115713 500.46439 
L 164.763057 500.398132 
L 164.407643 500.331447 
L 164.052229 500.264854 
L 163.696815 500.198356 
L 163.665045 500.19242 
L 163.341401 500.131876 
L 162.985987 500.065486 
L 162.630573 499.999196 
L 162.275159 499.933007 
L 162.207631 499.92045 
L 161.919745 499.866852 
L 161.564331 499.800785 
L 161.208917 499.734824 
L 160.853503 499.668971 
L 160.74273 499.64848 
L 160.498089 499.603169 
L 160.142675 499.537453 
L 159.787261 499.471849 
L 159.431847 499.40636 
L 159.269566 499.37651 
L 159.076433 499.340941 
L 158.721019 499.275602 
L 158.365605 499.210382 
L 158.010191 499.145283 
L 157.78733 499.10454 
L 157.654777 499.080276 
L 157.299363 499.015342 
L 157.150848 498.988261 
" style="fill:none;stroke:#fde725;stroke-width:1.5;"/>
    <path clip-path="url(#p179c67572e)" d="M 109.684832 491.933549 
L 109.673885 491.932423 
L 109.318471 491.896181 
L 108.963057 491.860251 
L 108.607643 491.824633 
L 108.252229 491.789329 
L 107.968042 491.761351 
L 107.896815 491.754329 
L 107.541401 491.719608 
L 107.185987 491.685203 
L 106.830573 491.651116 
L 106.475159 491.617346 
L 106.119745 491.583896 
L 105.764331 491.550765 
L 105.408917 491.517954 
L 105.096338 491.489381 
L 105.053503 491.48546 
L 104.698089 491.453251 
L 104.342675 491.421364 
L 103.987261 491.389803 
L 103.631847 491.358566 
L 103.276433 491.327655 
L 102.921019 491.29707 
L 102.565605 491.266813 
L 102.210191 491.236884 
L 101.976375 491.217411 
L 101.854777 491.20727 
L 101.499363 491.177961 
L 101.143949 491.148982 
L 100.788535 491.120334 
L 100.433121 491.092019 
L 100.077707 491.064037 
L 99.722293 491.036388 
L 99.366879 491.009074 
L 99.011465 490.982094 
L 98.656051 490.955451 
L 98.520821 490.945441 
L 98.300637 490.929121 
L 97.945223 490.903116 
L 97.589809 490.877449 
L 97.234395 490.852121 
L 96.878981 490.827132 
L 96.523567 490.802483 
L 96.168153 490.778174 
L 95.812739 490.754207 
L 95.457325 490.730581 
L 95.101911 490.707298 
L 94.746497 490.684358 
L 94.575256 490.673471 
L 94.391083 490.661746 
L 94.035669 490.639464 
L 93.680255 490.617527 
L 93.324841 490.595935 
L 92.969427 490.57469 
L 92.614013 490.553791 
L 92.258599 490.53324 
L 91.903185 490.513037 
L 91.547771 490.493181 
L 91.192357 490.473675 
L 90.836943 490.454518 
L 90.481529 490.43571 
L 90.126115 490.417253 
L 89.816915 490.401501 
L 89.770701 490.399143 
L 89.415287 490.381364 
L 89.059873 490.363937 
L 88.704459 490.346862 
L 88.349045 490.330141 
L 87.993631 490.313772 
L 87.638217 490.297758 
L 87.282803 490.282097 
L 86.927389 490.266791 
L 86.571975 490.25184 
L 86.216561 490.237244 
L 85.861146 490.223003 
L 85.505732 490.209119 
L 85.150318 490.195591 
L 84.794904 490.18242 
L 84.43949 490.169606 
L 84.084076 490.157149 
L 83.728662 490.145049 
L 83.373248 490.133308 
L 83.255321 490.129531 
L 83.017834 490.121915 
L 82.66242 490.110875 
L 82.307006 490.100195 
L 81.951592 490.089875 
L 81.596178 490.079914 
L 81.240764 490.070313 
L 80.88535 490.061073 
L 80.529936 490.052193 
L 80.174522 490.043674 
L 79.819108 490.035515 
L 79.463694 490.027718 
L 79.10828 490.020283 
L 78.752866 490.013209 
L 78.397452 490.006496 
L 78.042038 490.000146 
L 77.686624 489.994157 
L 77.33121 489.988531 
L 76.975796 489.983267 
L 76.620382 489.978365 
L 76.264968 489.973826 
L 75.909554 489.96965 
L 75.55414 489.965836 
L 75.198726 489.962386 
L 74.843312 489.959298 
L 74.487898 489.956574 
L 74.132484 489.954212 
L 73.77707 489.952214 
L 73.421656 489.950579 
L 73.066242 489.949308 
L 72.710828 489.948399 
L 72.355414 489.947854 
L 72 489.947673 
" style="fill:none;stroke:#fde725;stroke-width:1.5;"/>
    <path clip-path="url(#p179c67572e)" d="M 518.4 489.947746 
L 518.044586 489.948159 
L 517.689172 489.948936 
L 517.333758 489.950076 
L 516.978344 489.951579 
L 516.62293 489.953445 
L 516.267516 489.955675 
L 515.912102 489.958268 
L 515.556688 489.961223 
L 515.201274 489.964542 
L 514.84586 489.968224 
L 514.490446 489.972269 
L 514.135032 489.976676 
L 513.779618 489.981446 
L 513.424204 489.986578 
L 513.06879 489.992073 
L 512.713376 489.99793 
L 512.357962 490.004149 
L 512.002548 490.010731 
L 511.647134 490.017673 
L 511.29172 490.024978 
L 510.936306 490.032644 
L 510.580892 490.040671 
L 510.225478 490.049059 
L 509.870064 490.057808 
L 509.51465 490.066918 
L 509.159236 490.076388 
L 508.803822 490.086218 
L 508.448408 490.096408 
L 508.092994 490.106957 
L 507.73758 490.117866 
L 507.382166 490.129135 
L 507.370049 490.129531 
L 507.026752 490.140747 
L 506.671338 490.152716 
L 506.315924 490.165043 
L 505.96051 490.177728 
L 505.605096 490.19077 
L 505.249682 490.204168 
L 504.894268 490.217923 
L 504.538854 490.232034 
L 504.183439 490.246501 
L 503.828025 490.261323 
L 503.472611 490.276501 
L 503.117197 490.292033 
L 502.761783 490.307919 
L 502.406369 490.324159 
L 502.050955 490.340753 
L 501.695541 490.357699 
L 501.340127 490.374999 
L 500.984713 490.39265 
L 500.809981 490.401501 
L 500.629299 490.410641 
L 500.273885 490.428971 
L 499.918471 490.447651 
L 499.563057 490.466682 
L 499.207643 490.486062 
L 498.852229 490.50579 
L 498.496815 490.525867 
L 498.141401 490.546292 
L 497.785987 490.567065 
L 497.430573 490.588184 
L 497.075159 490.60965 
L 496.719745 490.631462 
L 496.364331 490.653619 
L 496.050771 490.673471 
L 496.008917 490.676117 
L 495.653503 490.698933 
L 495.298089 490.722091 
L 494.942675 490.745593 
L 494.587261 490.769436 
L 494.231847 490.793621 
L 493.876433 490.818146 
L 493.521019 490.843012 
L 493.165605 490.868217 
L 492.810191 490.893762 
L 492.454777 490.919644 
L 492.1051 490.945441 
L 492.099363 490.945864 
L 491.743949 490.972385 
L 491.388535 490.999243 
L 491.033121 491.026436 
L 490.677707 491.053964 
L 490.322293 491.081825 
L 489.966879 491.110019 
L 489.611465 491.138546 
L 489.256051 491.167405 
L 488.900637 491.196594 
L 488.650011 491.217411 
L 488.545223 491.226103 
L 488.189809 491.255913 
L 487.834395 491.286051 
L 487.478981 491.316517 
L 487.123567 491.347309 
L 486.768153 491.378428 
L 486.412739 491.409872 
L 486.057325 491.44164 
L 485.72025 491.472077 
" style="fill:none;stroke:#fde725;stroke-width:1.5;"/>
    <path clip-path="url(#p179c67572e)" d="M 438.200375 498.136777 
L 438.076433 498.158821 
L 437.721019 498.222181 
L 437.365605 498.285687 
L 437.349171 498.28863 
L 437.010191 498.349261 
L 436.654777 498.412973 
L 436.299363 498.476828 
L 435.943949 498.540822 
L 435.834338 498.5606 
L 435.588535 498.604897 
L 435.233121 498.669084 
L 434.877707 498.733406 
L 434.522293 498.797861 
L 434.33129 498.83257 
L 434.166879 498.862409 
L 433.811465 498.927043 
L 433.456051 498.991806 
L 433.100637 499.056695 
L 432.839078 499.10454 
L 432.745223 499.121687 
L 432.389809 499.186741 
L 432.034395 499.251917 
L 431.678981 499.317213 
L 431.356803 499.37651 
L 431.323567 499.38262 
L 430.968153 499.448067 
L 430.612739 499.51363 
L 430.257325 499.579305 
L 429.901911 499.645093 
L 429.883642 499.64848 
L 429.546497 499.710911 
L 429.191083 499.776833 
L 428.835669 499.842861 
L 428.480255 499.908995 
L 428.418786 499.92045 
L 428.124841 499.975162 
L 427.769427 500.041416 
L 427.414013 500.107769 
L 427.058599 500.174221 
L 426.961405 500.19242 
L 426.703185 500.240709 
L 426.347771 500.307267 
L 425.992357 500.373919 
L 425.636943 500.440662 
L 425.51076 500.46439 
L 425.281529 500.507441 
L 424.926115 500.574277 
L 424.570701 500.641199 
L 424.215287 500.708207 
L 424.066141 500.73636 
L 423.859873 500.775247 
L 423.504459 500.842334 
L 423.149045 500.909499 
L 422.793631 500.976743 
L 422.626865 501.00833 
L 422.438217 501.044017 
L 422.082803 501.111326 
L 421.727389 501.178708 
L 421.371975 501.24616 
L 421.192272 501.2803 
L 421.016561 501.31364 
L 420.661146 501.381144 
L 420.305732 501.448714 
L 419.950318 501.516347 
L 419.76172 501.55227 
L 419.594904 501.584004 
L 419.23949 501.651675 
L 418.884076 501.719406 
L 418.528662 501.787194 
L 418.334588 501.82424 
L 418.173248 501.854999 
L 417.817834 501.922811 
L 417.46242 501.990675 
L 417.107006 502.058589 
L 416.910268 502.09621 
L 416.751592 502.126514 
L 416.396178 502.194439 
L 416.040764 502.262409 
L 415.68535 502.330423 
L 415.488165 502.36818 
L 415.329936 502.39844 
L 414.974522 502.46645 
L 414.619108 502.534498 
L 414.263694 502.602584 
L 414.067694 502.64015 
L 413.90828 502.670666 
L 413.552866 502.738734 
L 413.197452 502.806833 
L 412.842038 502.874963 
L 412.648278 502.91212 
L 412.486624 502.943082 
L 412.13121 503.01118 
L 411.775796 503.079304 
L 411.420382 503.14745 
L 411.229349 503.18409 
L 411.064968 503.215578 
L 410.709554 503.28368 
L 410.35414 503.3518 
L 409.998726 503.419937 
L 409.810338 503.45606 
L 409.643312 503.488047 
L 409.287898 503.556125 
L 408.932484 503.624215 
L 408.57707 503.692313 
L 408.390682 503.72803 
L 408.221656 503.760379 
L 407.866242 503.828406 
L 407.510828 503.896438 
L 407.155414 503.964472 
L 406.969815 504 
" style="fill:none;stroke:#fde725;stroke-width:1.5;"/>
    <path clip-path="url(#p179c67572e)" d="M 72 82.900357 
L 80.88535 82.786957 
L 89.816915 82.446529 
L 98.656051 81.892579 
L 107.968042 81.086679 
L 117.492994 80.043379 
L 125.417689 79.022006 
L 125.417689 79.022006 
" style="fill:none;stroke:#fde725;stroke-width:1.5;"/>
    <path clip-path="url(#p179c67572e)" d="M 172.726696 70.940842 
L 172.93758 70.900595 
L 173.292994 70.832712 
L 173.648408 70.76478 
L 173.716164 70.75182 
L 174.003822 70.696869 
L 174.359236 70.628927 
L 174.71465 70.560941 
L 175.070064 70.492912 
L 175.138266 70.47985 
L 175.425478 70.424911 
L 175.780892 70.356887 
L 176.136306 70.288825 
L 176.49172 70.220727 
L 176.558736 70.20788 
L 176.847134 70.152664 
L 177.202548 70.084584 
L 177.557962 70.016473 
L 177.913376 69.948333 
L 177.978149 69.93591 
L 178.26879 69.880236 
L 178.624204 69.812128 
L 178.979618 69.743996 
L 179.335032 69.675842 
L 179.397078 69.66394 
L 179.690446 69.607737 
L 180.04586 69.539628 
L 180.401274 69.471502 
L 180.756688 69.40336 
L 180.816086 69.39197 
L 181.112102 69.335276 
L 181.467516 69.267194 
L 181.82293 69.199101 
L 182.178344 69.130999 
L 182.235741 69.12 
" style="fill:none;stroke:#fde725;stroke-width:1.5;"/>
    <path clip-path="url(#p179c67572e)" d="M 408.390682 69.12 
L 437.365605 74.562343 
L 451.226752 76.928178 
L 456.219204 77.714481 
L 456.219204 77.714481 
" style="fill:none;stroke:#fde725;stroke-width:1.5;"/>
    <path clip-path="url(#p179c67572e)" d="M 503.945776 82.591617 
L 504.183439 82.601529 
L 504.538854 82.615996 
L 504.894268 82.630107 
L 505.249682 82.643862 
L 505.605096 82.65726 
L 505.96051 82.670302 
L 506.315924 82.682987 
L 506.671338 82.695314 
L 507.026752 82.707283 
L 507.370049 82.718499 
L 507.382166 82.718895 
L 507.73758 82.730164 
L 508.092994 82.741073 
L 508.448408 82.751622 
L 508.803822 82.761812 
L 509.159236 82.771642 
L 509.51465 82.781112 
L 509.870064 82.790222 
L 510.225478 82.798971 
L 510.580892 82.807359 
L 510.936306 82.815386 
L 511.29172 82.823052 
L 511.647134 82.830357 
L 512.002548 82.837299 
L 512.357962 82.843881 
L 512.713376 82.8501 
L 513.06879 82.855957 
L 513.424204 82.861452 
L 513.779618 82.866584 
L 514.135032 82.871354 
L 514.490446 82.875761 
L 514.84586 82.879806 
L 515.201274 82.883488 
L 515.556688 82.886807 
L 515.912102 82.889762 
L 516.267516 82.892355 
L 516.62293 82.894585 
L 516.978344 82.896451 
L 517.333758 82.897954 
L 517.689172 82.899094 
L 518.044586 82.899871 
L 518.4 82.900284 
" style="fill:none;stroke:#fde725;stroke-width:1.5;"/>
   </g>
   <g id="patch_3">
    <path d="M 72 504 
L 72 69.12 
" style="fill:none;stroke:#000000;stroke-linecap:square;stroke-linejoin:miter;stroke-width:0.8;"/>
   </g>
   <g id="patch_4">
    <path d="M 518.4 504 
L 518.4 69.12 
" style="fill:none;stroke:#000000;stroke-linecap:square;stroke-linejoin:miter;stroke-width:0.8;"/>
   </g>
   <g id="patch_5">
    <path d="M 72 504 
L 518.4 504 
" style="fill:none;stroke:#000000;stroke-linecap:square;stroke-linejoin:miter;stroke-width:0.8;"/>
   </g>
   <g id="patch_6">
    <path d="M 72 69.12 
L 518.4 69.12 
" style="fill:none;stroke:#000000;stroke-linecap:square;stroke-linejoin:miter;stroke-width:0.8;"/>
   </g>
   <g id="text_19">
    <g clip-path="url(#p179c67572e)">
     <!-- 1.500 -->
     <defs>
      <path d="M 10.6875 12.40625 
L 21 12.40625 
L 21 0 
L 10.6875 0 
z
" id="DejaVuSans-2e"/>
      <path d="M 10.796875 72.90625 
L 49.515625 72.90625 
L 49.515625 64.59375 
L 19.828125 64.59375 
L 19.828125 46.734375 
Q 21.96875 47.46875 24.109375 47.828125 
Q 26.265625 48.1875 28.421875 48.1875 
Q 40.625 48.1875 47.75 41.5 
Q 54.890625 34.8125 54.890625 23.390625 
Q 54.890625 11.625 47.5625 5.09375 
Q 40.234375 -1.421875 26.90625 -1.421875 
Q 22.3125 -1.421875 17.546875 -0.640625 
Q 12.796875 0.140625 7.71875 1.703125 
L 7.71875 11.625 
Q 12.109375 9.234375 16.796875 8.0625 
Q 21.484375 6.890625 26.703125 6.890625 
Q 35.15625 6.890625 40.078125 11.328125 
Q 45.015625 15.765625 45.015625 23.390625 
Q 45.015625 31 40.078125 35.4375 
Q 35.15625 39.890625 26.703125 39.890625 
Q 22.75 39.890625 18.8125 39.015625 
Q 14.890625 38.140625 10.796875 36.28125 
z
" id="DejaVuSans-35"/>
     </defs>
     <g style="fill:#440154;" transform="translate(379.162498 217.422704)rotate(-325.765837)scale(0.14 -0.14)">
      <use xlink:href="#DejaVuSans-31"/>
      <use x="63.623047" xlink:href="#DejaVuSans-2e"/>
      <use x="95.410156" xlink:href="#DejaVuSans-35"/>
      <use x="159.033203" xlink:href="#DejaVuSans-30"/>
      <use x="222.65625" xlink:href="#DejaVuSans-30"/>
     </g>
    </g>
   </g>
   <g id="text_20">
    <g clip-path="url(#p179c67572e)">
     <!-- 3.000 -->
     <g style="fill:#414487;" transform="translate(150.321262 386.361446)rotate(-338.691635)scale(0.14 -0.14)">
      <use xlink:href="#DejaVuSans-33"/>
      <use x="63.623047" xlink:href="#DejaVuSans-2e"/>
      <use x="95.410156" xlink:href="#DejaVuSans-30"/>
      <use x="159.033203" xlink:href="#DejaVuSans-30"/>
      <use x="222.65625" xlink:href="#DejaVuSans-30"/>
     </g>
    </g>
   </g>
   <g id="text_21">
    <g clip-path="url(#p179c67572e)">
     <!-- 3.000 -->
     <g style="fill:#414487;" transform="translate(155.30624 192.806656)rotate(-21.255684)scale(0.14 -0.14)">
      <use xlink:href="#DejaVuSans-33"/>
      <use x="63.623047" xlink:href="#DejaVuSans-2e"/>
      <use x="95.410156" xlink:href="#DejaVuSans-30"/>
      <use x="159.033203" xlink:href="#DejaVuSans-30"/>
      <use x="222.65625" xlink:href="#DejaVuSans-30"/>
     </g>
    </g>
   </g>
   <g id="text_22">
    <g clip-path="url(#p179c67572e)">
     <!-- 4.500 -->
     <g style="fill:#2a788e;" transform="translate(391.445724 438.800876)rotate(-16.00604)scale(0.14 -0.14)">
      <use xlink:href="#DejaVuSans-34"/>
      <use x="63.623047" xlink:href="#DejaVuSans-2e"/>
      <use x="95.410156" xlink:href="#DejaVuSans-35"/>
      <use x="159.033203" xlink:href="#DejaVuSans-30"/>
      <use x="222.65625" xlink:href="#DejaVuSans-30"/>
     </g>
    </g>
   </g>
   <g id="text_23">
    <g clip-path="url(#p179c67572e)">
     <!-- 4.500 -->
     <g style="fill:#2a788e;" transform="translate(402.111286 145.195908)rotate(-343.959815)scale(0.14 -0.14)">
      <use xlink:href="#DejaVuSans-34"/>
      <use x="63.623047" xlink:href="#DejaVuSans-2e"/>
      <use x="95.410156" xlink:href="#DejaVuSans-35"/>
      <use x="159.033203" xlink:href="#DejaVuSans-30"/>
      <use x="222.65625" xlink:href="#DejaVuSans-30"/>
     </g>
    </g>
   </g>
   <g id="text_24">
    <g clip-path="url(#p179c67572e)">
     <!-- 6.000 -->
     <defs>
      <path d="M 33.015625 40.375 
Q 26.375 40.375 22.484375 35.828125 
Q 18.609375 31.296875 18.609375 23.390625 
Q 18.609375 15.53125 22.484375 10.953125 
Q 26.375 6.390625 33.015625 6.390625 
Q 39.65625 6.390625 43.53125 10.953125 
Q 47.40625 15.53125 47.40625 23.390625 
Q 47.40625 31.296875 43.53125 35.828125 
Q 39.65625 40.375 33.015625 40.375 
z
M 52.59375 71.296875 
L 52.59375 62.3125 
Q 48.875 64.0625 45.09375 64.984375 
Q 41.3125 65.921875 37.59375 65.921875 
Q 27.828125 65.921875 22.671875 59.328125 
Q 17.53125 52.734375 16.796875 39.40625 
Q 19.671875 43.65625 24.015625 45.921875 
Q 28.375 48.1875 33.59375 48.1875 
Q 44.578125 48.1875 50.953125 41.515625 
Q 57.328125 34.859375 57.328125 23.390625 
Q 57.328125 12.15625 50.6875 5.359375 
Q 44.046875 -1.421875 33.015625 -1.421875 
Q 20.359375 -1.421875 13.671875 8.265625 
Q 6.984375 17.96875 6.984375 36.375 
Q 6.984375 53.65625 15.1875 63.9375 
Q 23.390625 74.21875 37.203125 74.21875 
Q 40.921875 74.21875 44.703125 73.484375 
Q 48.484375 72.75 52.59375 71.296875 
z
" id="DejaVuSans-36"/>
     </defs>
     <g style="fill:#22a884;" transform="translate(156.10373 455.775293)rotate(-346.510697)scale(0.14 -0.14)">
      <use xlink:href="#DejaVuSans-36"/>
      <use x="63.623047" xlink:href="#DejaVuSans-2e"/>
      <use x="95.410156" xlink:href="#DejaVuSans-30"/>
      <use x="159.033203" xlink:href="#DejaVuSans-30"/>
      <use x="222.65625" xlink:href="#DejaVuSans-30"/>
     </g>
    </g>
   </g>
   <g id="text_25">
    <g clip-path="url(#p179c67572e)">
     <!-- 6.000 -->
     <g style="fill:#22a884;" transform="translate(166.068769 122.576177)rotate(-13.409415)scale(0.14 -0.14)">
      <use xlink:href="#DejaVuSans-36"/>
      <use x="63.623047" xlink:href="#DejaVuSans-2e"/>
      <use x="95.410156" xlink:href="#DejaVuSans-30"/>
      <use x="159.033203" xlink:href="#DejaVuSans-30"/>
      <use x="222.65625" xlink:href="#DejaVuSans-30"/>
     </g>
    </g>
   </g>
   <g id="text_26">
    <g clip-path="url(#p179c67572e)">
     <!-- 7.500 -->
     <defs>
      <path d="M 8.203125 72.90625 
L 55.078125 72.90625 
L 55.078125 68.703125 
L 28.609375 0 
L 18.3125 0 
L 43.21875 64.59375 
L 8.203125 64.59375 
z
" id="DejaVuSans-37"/>
     </defs>
     <g style="fill:#7ad151;" transform="translate(384.414595 491.200179)rotate(-11.763166)scale(0.14 -0.14)">
      <use xlink:href="#DejaVuSans-37"/>
      <use x="63.623047" xlink:href="#DejaVuSans-2e"/>
      <use x="95.410156" xlink:href="#DejaVuSans-35"/>
      <use x="159.033203" xlink:href="#DejaVuSans-30"/>
      <use x="222.65625" xlink:href="#DejaVuSans-30"/>
     </g>
    </g>
   </g>
   <g id="text_27">
    <g clip-path="url(#p179c67572e)">
     <!-- 7.500 -->
     <g style="fill:#7ad151;" transform="translate(399.899433 92.828492)rotate(-348.219905)scale(0.14 -0.14)">
      <use xlink:href="#DejaVuSans-37"/>
      <use x="63.623047" xlink:href="#DejaVuSans-2e"/>
      <use x="95.410156" xlink:href="#DejaVuSans-35"/>
      <use x="159.033203" xlink:href="#DejaVuSans-30"/>
      <use x="222.65625" xlink:href="#DejaVuSans-30"/>
     </g>
    </g>
   </g>
   <g id="text_28">
    <g clip-path="url(#p179c67572e)">
     <!-- 9.000 -->
     <defs>
      <path d="M 10.984375 1.515625 
L 10.984375 10.5 
Q 14.703125 8.734375 18.5 7.8125 
Q 22.3125 6.890625 25.984375 6.890625 
Q 35.75 6.890625 40.890625 13.453125 
Q 46.046875 20.015625 46.78125 33.40625 
Q 43.953125 29.203125 39.59375 26.953125 
Q 35.25 24.703125 29.984375 24.703125 
Q 19.046875 24.703125 12.671875 31.3125 
Q 6.296875 37.9375 6.296875 49.421875 
Q 6.296875 60.640625 12.9375 67.421875 
Q 19.578125 74.21875 30.609375 74.21875 
Q 43.265625 74.21875 49.921875 64.515625 
Q 56.59375 54.828125 56.59375 36.375 
Q 56.59375 19.140625 48.40625 8.859375 
Q 40.234375 -1.421875 26.421875 -1.421875 
Q 22.703125 -1.421875 18.890625 -0.6875 
Q 15.09375 0.046875 10.984375 1.515625 
z
M 30.609375 32.421875 
Q 37.25 32.421875 41.125 36.953125 
Q 45.015625 41.5 45.015625 49.421875 
Q 45.015625 57.28125 41.125 61.84375 
Q 37.25 66.40625 30.609375 66.40625 
Q 23.96875 66.40625 20.09375 61.84375 
Q 16.21875 57.28125 16.21875 49.421875 
Q 16.21875 41.5 20.09375 36.953125 
Q 23.96875 32.421875 30.609375 32.421875 
z
" id="DejaVuSans-39"/>
     </defs>
     <g style="fill:#fde725;" transform="translate(113.096105 495.85298)rotate(-351.503716)scale(0.14 -0.14)">
      <use xlink:href="#DejaVuSans-39"/>
      <use x="63.623047" xlink:href="#DejaVuSans-2e"/>
      <use x="95.410156" xlink:href="#DejaVuSans-30"/>
      <use x="159.033203" xlink:href="#DejaVuSans-30"/>
      <use x="222.65625" xlink:href="#DejaVuSans-30"/>
     </g>
    </g>
   </g>
   <g id="text_29">
    <g clip-path="url(#p179c67572e)">
     <!-- 9.000 -->
     <g style="fill:#fde725;" transform="translate(442.585001 500.914333)rotate(-8.024659)scale(0.14 -0.14)">
      <use xlink:href="#DejaVuSans-39"/>
      <use x="63.623047" xlink:href="#DejaVuSans-2e"/>
      <use x="95.410156" xlink:href="#DejaVuSans-30"/>
      <use x="159.033203" xlink:href="#DejaVuSans-30"/>
      <use x="222.65625" xlink:href="#DejaVuSans-30"/>
     </g>
    </g>
   </g>
   <g id="text_30">
    <g clip-path="url(#p179c67572e)">
     <!-- 9.000 -->
     <g style="fill:#fde725;" transform="translate(130.02746 82.490248)rotate(-9.739145)scale(0.14 -0.14)">
      <use xlink:href="#DejaVuSans-39"/>
      <use x="63.623047" xlink:href="#DejaVuSans-2e"/>
      <use x="95.410156" xlink:href="#DejaVuSans-30"/>
      <use x="159.033203" xlink:href="#DejaVuSans-30"/>
      <use x="222.65625" xlink:href="#DejaVuSans-30"/>
     </g>
    </g>
   </g>
   <g id="text_31">
    <g clip-path="url(#p179c67572e)">
     <!-- 9.000 -->
     <g style="fill:#fde725;" transform="translate(459.685685 82.613013)rotate(-354.133069)scale(0.14 -0.14)">
      <use xlink:href="#DejaVuSans-39"/>
      <use x="63.623047" xlink:href="#DejaVuSans-2e"/>
      <use x="95.410156" xlink:href="#DejaVuSans-30"/>
      <use x="159.033203" xlink:href="#DejaVuSans-30"/>
      <use x="222.65625" xlink:href="#DejaVuSans-30"/>
     </g>
    </g>
   </g>
  </g>
 </g>
 <defs>
  <clipPath id="p179c67572e">
   <rect height="434.88" width="446.4" x="72" y="69.12"/>
  </clipPath>
 </defs>
</svg>
